<svg width="128" height="128" viewBox="0 0 128 128" fill="none" xmlns="http://www.w3.org/2000/svg">
<g filter="url(#filter0_d_855_2531)">
<rect x="4" width="120" height="120" rx="12" fill="#FF95E6"/>
<path d="M39.3645 37.887L31.7854 41.8617C30.8967 42.3307 30.7239 43.5404 31.4645 44.2563L37.9079 50.3542L39.3645 37.887Z" fill="url(#paint0_radial_855_2531)"/>
<path d="M39.3645 37.887L31.7854 41.8617C30.8967 42.3307 30.7239 43.5404 31.4645 44.2563L37.9079 50.3542L39.3645 37.887Z" fill="url(#paint1_radial_855_2531)"/>
<path d="M56.9172 90.4219H52.671L55.6335 75.6094H51.9303L48.9678 90.4219H44.5241C42.7219 90.4219 41.2407 91.7056 40.895 93.4091C40.7963 93.7794 41.1172 94.125 41.4875 94.125H59.9291C60.3241 94.125 60.6203 93.7794 60.5463 93.4091C60.2007 91.7056 58.7194 90.4219 56.9172 90.4219Z" fill="url(#paint2_linear_855_2531)"/>
<path d="M56.9172 90.4219H52.671L55.6335 75.6094H51.9303L48.9678 90.4219H44.5241C42.7219 90.4219 41.2407 91.7056 40.895 93.4091C40.7963 93.7794 41.1172 94.125 41.4875 94.125H59.9291C60.3241 94.125 60.6203 93.7794 60.5463 93.4091C60.2007 91.7056 58.7194 90.4219 56.9172 90.4219Z" fill="url(#paint3_linear_855_2531)"/>
<path d="M56.9172 90.4219H52.671L55.6335 75.6094H51.9303L48.9678 90.4219H44.5241C42.7219 90.4219 41.2407 91.7056 40.895 93.4091C40.7963 93.7794 41.1172 94.125 41.4875 94.125H59.9291C60.3241 94.125 60.6203 93.7794 60.5463 93.4091C60.2007 91.7056 58.7194 90.4219 56.9172 90.4219Z" fill="url(#paint4_radial_855_2531)"/>
<path d="M56.9172 90.4219H52.671L55.6335 75.6094H51.9303L48.9678 90.4219H44.5241C42.7219 90.4219 41.2407 91.7056 40.895 93.4091C40.7963 93.7794 41.1172 94.125 41.4875 94.125H59.9291C60.3241 94.125 60.6203 93.7794 60.5463 93.4091C60.2007 91.7056 58.7194 90.4219 56.9172 90.4219Z" fill="url(#paint5_linear_855_2531)"/>
<g filter="url(#filter1_f_855_2531)">
<path d="M42.9194 93.0833H54.4534" stroke="url(#paint6_linear_855_2531)" stroke-opacity="0.75" stroke-width="0.25"/>
</g>
<path d="M69.4091 90.4219H65.0147L67.9772 75.6094H64.2741L61.3116 90.4219H56.8678C55.0657 90.4219 53.5844 91.7056 53.2388 93.4091C53.14 93.7794 53.461 94.125 53.8313 94.125H72.421C72.816 94.125 73.1122 93.7794 73.0382 93.4091C72.8681 92.5702 72.4146 91.8154 71.7538 91.2714C71.0929 90.7275 70.265 90.4275 69.4091 90.4219Z" fill="url(#paint7_linear_855_2531)"/>
<path d="M69.4091 90.4219H65.0147L67.9772 75.6094H64.2741L61.3116 90.4219H56.8678C55.0657 90.4219 53.5844 91.7056 53.2388 93.4091C53.14 93.7794 53.461 94.125 53.8313 94.125H72.421C72.816 94.125 73.1122 93.7794 73.0382 93.4091C72.8681 92.5702 72.4146 91.8154 71.7538 91.2714C71.0929 90.7275 70.265 90.4275 69.4091 90.4219Z" fill="url(#paint8_linear_855_2531)"/>
<path d="M69.4091 90.4219H65.0147L67.9772 75.6094H64.2741L61.3116 90.4219H56.8678C55.0657 90.4219 53.5844 91.7056 53.2388 93.4091C53.14 93.7794 53.461 94.125 53.8313 94.125H72.421C72.816 94.125 73.1122 93.7794 73.0382 93.4091C72.8681 92.5702 72.4146 91.8154 71.7538 91.2714C71.0929 90.7275 70.265 90.4275 69.4091 90.4219Z" fill="url(#paint9_linear_855_2531)"/>
<path d="M69.4091 90.4219H65.0147L67.9772 75.6094H64.2741L61.3116 90.4219H56.8678C55.0657 90.4219 53.5844 91.7056 53.2388 93.4091C53.14 93.7794 53.461 94.125 53.8313 94.125H72.421C72.816 94.125 73.1122 93.7794 73.0382 93.4091C72.8681 92.5702 72.4146 91.8154 71.7538 91.2714C71.0929 90.7275 70.265 90.4275 69.4091 90.4219Z" fill="url(#paint10_radial_855_2531)"/>
<g filter="url(#filter2_f_855_2531)">
<path d="M54.8779 93.0833H71.8136" stroke="url(#paint11_linear_855_2531)" stroke-opacity="0.75" stroke-width="0.25"/>
</g>
<path d="M66.2739 81.7813L66.6196 68.8697L94.7139 55.7854C94.9853 55.6602 95.2836 55.6049 95.5817 55.6244C95.8799 55.644 96.1684 55.7377 96.4211 55.8972C96.6738 56.0567 96.8826 56.2768 97.0285 56.5375C97.1745 56.7982 97.2529 57.0913 97.2567 57.3901V79.9791C97.2567 80.9666 96.4667 81.7566 95.4792 81.7566H66.2739V81.7813Z" fill="url(#paint12_linear_855_2531)"/>
<path d="M66.2739 81.7813L66.6196 68.8697L94.7139 55.7854C94.9853 55.6602 95.2836 55.6049 95.5817 55.6244C95.8799 55.644 96.1684 55.7377 96.4211 55.8972C96.6738 56.0567 96.8826 56.2768 97.0285 56.5375C97.1745 56.7982 97.2529 57.0913 97.2567 57.3901V79.9791C97.2567 80.9666 96.4667 81.7566 95.4792 81.7566H66.2739V81.7813Z" fill="url(#paint13_linear_855_2531)"/>
<path d="M66.2739 81.7813L66.6196 68.8697L94.7139 55.7854C94.9853 55.6602 95.2836 55.6049 95.5817 55.6244C95.8799 55.644 96.1684 55.7377 96.4211 55.8972C96.6738 56.0567 96.8826 56.2768 97.0285 56.5375C97.1745 56.7982 97.2529 57.0913 97.2567 57.3901V79.9791C97.2567 80.9666 96.4667 81.7566 95.4792 81.7566H66.2739V81.7813Z" fill="url(#paint14_linear_855_2531)"/>
<path d="M66.9651 35.4181C66.6442 34.3812 66.2245 33.3938 65.6814 32.4803H67.212C70.3967 32.4803 72.9642 29.9128 72.9642 26.7281C72.9642 25.79 72.1742 25 71.2361 25H52.8192C44.9686 25 38.5498 31.1225 38.0314 38.8497L34.8467 66.4503C33.9086 74.6219 40.278 81.7812 48.4989 81.7812H82.4442L66.9651 35.4181Z" fill="url(#paint15_linear_855_2531)"/>
<path d="M66.9651 35.4181C66.6442 34.3812 66.2245 33.3938 65.6814 32.4803H67.212C70.3967 32.4803 72.9642 29.9128 72.9642 26.7281C72.9642 25.79 72.1742 25 71.2361 25H52.8192C44.9686 25 38.5498 31.1225 38.0314 38.8497L34.8467 66.4503C33.9086 74.6219 40.278 81.7812 48.4989 81.7812H82.4442L66.9651 35.4181Z" fill="url(#paint16_linear_855_2531)"/>
<path d="M66.9651 35.4181C66.6442 34.3812 66.2245 33.3938 65.6814 32.4803H67.212C70.3967 32.4803 72.9642 29.9128 72.9642 26.7281C72.9642 25.79 72.1742 25 71.2361 25H52.8192C44.9686 25 38.5498 31.1225 38.0314 38.8497L34.8467 66.4503C33.9086 74.6219 40.278 81.7812 48.4989 81.7812H82.4442L66.9651 35.4181Z" fill="url(#paint17_radial_855_2531)"/>
<path d="M66.9651 35.4181C66.6442 34.3812 66.2245 33.3938 65.6814 32.4803H67.212C70.3967 32.4803 72.9642 29.9128 72.9642 26.7281C72.9642 25.79 72.1742 25 71.2361 25H52.8192C44.9686 25 38.5498 31.1225 38.0314 38.8497L34.8467 66.4503C33.9086 74.6219 40.278 81.7812 48.4989 81.7812H82.4442L66.9651 35.4181Z" fill="url(#paint18_linear_855_2531)"/>
<path d="M66.9651 35.4181C66.6442 34.3812 66.2245 33.3938 65.6814 32.4803H67.212C70.3967 32.4803 72.9642 29.9128 72.9642 26.7281C72.9642 25.79 72.1742 25 71.2361 25H52.8192C44.9686 25 38.5498 31.1225 38.0314 38.8497L34.8467 66.4503C33.9086 74.6219 40.278 81.7812 48.4989 81.7812H82.4442L66.9651 35.4181Z" fill="url(#paint19_radial_855_2531)"/>
<path d="M56.1274 47.2188V64.3272C56.1274 68.9563 57.9663 73.3958 61.2396 76.6691C64.5129 79.9423 68.9524 81.7812 73.5815 81.7812H82.4443L70.9153 47.2188H56.1274Z" fill="url(#paint20_linear_855_2531)"/>
<path d="M48.2866 42.3381C48.614 42.3381 48.928 42.2081 49.1595 41.9766C49.3909 41.7451 49.521 41.4311 49.521 41.1038C49.521 40.7764 49.3909 40.4624 49.1595 40.2309C48.928 39.9994 48.614 39.8694 48.2866 39.8694C47.9592 39.8694 47.6453 39.9994 47.4138 40.2309C47.1823 40.4624 47.0522 40.7764 47.0522 41.1038C47.0522 41.4311 47.1823 41.7451 47.4138 41.9766C47.6453 42.2081 47.9592 42.3381 48.2866 42.3381Z" fill="url(#paint21_radial_855_2531)"/>
<path d="M48.2866 42.3381C48.614 42.3381 48.928 42.2081 49.1595 41.9766C49.3909 41.7451 49.521 41.4311 49.521 41.1038C49.521 40.7764 49.3909 40.4624 49.1595 40.2309C48.928 39.9994 48.614 39.8694 48.2866 39.8694C47.9592 39.8694 47.6453 39.9994 47.4138 40.2309C47.1823 40.4624 47.0522 40.7764 47.0522 41.1038C47.0522 41.4311 47.1823 41.7451 47.4138 41.9766C47.6453 42.2081 47.9592 42.3381 48.2866 42.3381Z" fill="url(#paint22_radial_855_2531)"/>
<path d="M48.2866 42.3381C48.614 42.3381 48.928 42.2081 49.1595 41.9766C49.3909 41.7451 49.521 41.4311 49.521 41.1038C49.521 40.7764 49.3909 40.4624 49.1595 40.2309C48.928 39.9994 48.614 39.8694 48.2866 39.8694C47.9592 39.8694 47.6453 39.9994 47.4138 40.2309C47.1823 40.4624 47.0522 40.7764 47.0522 41.1038C47.0522 41.4311 47.1823 41.7451 47.4138 41.9766C47.6453 42.2081 47.9592 42.3381 48.2866 42.3381Z" fill="url(#paint23_linear_855_2531)"/>
<g filter="url(#filter3_f_855_2531)">
<path d="M59.5466 66.3935L55.3867 35.3367H64.1755L78.909 76.4488C78.9806 76.6493 78.9992 76.865 78.9628 77.0748C78.9265 77.2846 78.8365 77.4815 78.7015 77.6462C78.5666 77.811 78.3913 77.938 78.1928 78.015C77.9942 78.092 77.7792 78.1163 77.5684 78.0855L69.9795 76.9672C67.3284 76.5761 64.8767 75.3328 62.9945 73.4253C61.1124 71.5178 59.9021 69.0496 59.5466 66.3935Z" fill="url(#paint24_linear_855_2531)"/>
</g>
<g filter="url(#filter4_f_855_2531)">
<path d="M65.6392 31.1323C67.0488 31.1816 70.4038 31.0014 71.4654 27.8538" stroke="url(#paint25_linear_855_2531)" stroke-width="0.25"/>
</g>
<path fill-rule="evenodd" clip-rule="evenodd" d="M65.6814 32.4803C66.2245 33.3937 66.6442 34.3812 66.9652 35.4181L68.2884 39.3755L57.7222 32.4729H67.212L67.2145 32.4803H65.6814Z" fill="url(#paint26_linear_855_2531)"/>
<g filter="url(#filter5_f_855_2531)">
<path d="M95.9976 57.2493V79.236" stroke="url(#paint27_linear_855_2531)" stroke-width="0.4" stroke-linecap="round"/>
</g>
</g>
<defs>
<filter id="filter0_d_855_2531" x="0" y="0" width="128" height="128" filterUnits="userSpaceOnUse" color-interpolation-filters="sRGB">
<feFlood flood-opacity="0" result="BackgroundImageFix"/>
<feColorMatrix in="SourceAlpha" type="matrix" values="0 0 0 0 0 0 0 0 0 0 0 0 0 0 0 0 0 0 127 0" result="hardAlpha"/>
<feOffset dy="4"/>
<feGaussianBlur stdDeviation="2"/>
<feComposite in2="hardAlpha" operator="out"/>
<feColorMatrix type="matrix" values="0 0 0 0 0 0 0 0 0 0 0 0 0 0 0 0 0 0 0.25 0"/>
<feBlend mode="normal" in2="BackgroundImageFix" result="effect1_dropShadow_855_2531"/>
<feBlend mode="normal" in="SourceGraphic" in2="effect1_dropShadow_855_2531" result="shape"/>
</filter>
<filter id="filter1_f_855_2531" x="42.6694" y="92.7083" width="12.0342" height="0.75" filterUnits="userSpaceOnUse" color-interpolation-filters="sRGB">
<feFlood flood-opacity="0" result="BackgroundImageFix"/>
<feBlend mode="normal" in="SourceGraphic" in2="BackgroundImageFix" result="shape"/>
<feGaussianBlur stdDeviation="0.125" result="effect1_foregroundBlur_855_2531"/>
</filter>
<filter id="filter2_f_855_2531" x="54.6279" y="92.7083" width="17.4355" height="0.75" filterUnits="userSpaceOnUse" color-interpolation-filters="sRGB">
<feFlood flood-opacity="0" result="BackgroundImageFix"/>
<feBlend mode="normal" in="SourceGraphic" in2="BackgroundImageFix" result="shape"/>
<feGaussianBlur stdDeviation="0.125" result="effect1_foregroundBlur_855_2531"/>
</filter>
<filter id="filter3_f_855_2531" x="53.3867" y="33.3367" width="27.5942" height="46.7617" filterUnits="userSpaceOnUse" color-interpolation-filters="sRGB">
<feFlood flood-opacity="0" result="BackgroundImageFix"/>
<feBlend mode="normal" in="SourceGraphic" in2="BackgroundImageFix" result="shape"/>
<feGaussianBlur stdDeviation="1" result="effect1_foregroundBlur_855_2531"/>
</filter>
<filter id="filter4_f_855_2531" x="65.1348" y="27.3137" width="6.94922" height="4.44971" filterUnits="userSpaceOnUse" color-interpolation-filters="sRGB">
<feFlood flood-opacity="0" result="BackgroundImageFix"/>
<feBlend mode="normal" in="SourceGraphic" in2="BackgroundImageFix" result="shape"/>
<feGaussianBlur stdDeviation="0.25" result="effect1_foregroundBlur_855_2531"/>
</filter>
<filter id="filter5_f_855_2531" x="95.3974" y="56.6493" width="1.20039" height="23.1867" filterUnits="userSpaceOnUse" color-interpolation-filters="sRGB">
<feFlood flood-opacity="0" result="BackgroundImageFix"/>
<feBlend mode="normal" in="SourceGraphic" in2="BackgroundImageFix" result="shape"/>
<feGaussianBlur stdDeviation="0.2" result="effect1_foregroundBlur_855_2531"/>
</filter>
<radialGradient id="paint0_radial_855_2531" cx="0" cy="0" r="1" gradientUnits="userSpaceOnUse" gradientTransform="translate(32.6989 43.4392) scale(17.8984 11.0322)">
<stop stop-color="#EDB134"/>
<stop offset="1" stop-color="#BE8244"/>
</radialGradient>
<radialGradient id="paint1_radial_855_2531" cx="0" cy="0" r="1" gradientUnits="userSpaceOnUse" gradientTransform="translate(33.3161 43.2837) rotate(-11.967) scale(7.25534 5.22412)">
<stop stop-color="#FFD150"/>
<stop offset="1" stop-color="#FFD150" stop-opacity="0"/>
</radialGradient>
<linearGradient id="paint2_linear_855_2531" x1="53.2882" y1="79.194" x2="50.3158" y2="95.7494" gradientUnits="userSpaceOnUse">
<stop stop-color="#D69946"/>
<stop offset="1" stop-color="#E99D23"/>
</linearGradient>
<linearGradient id="paint3_linear_855_2531" x1="52.2167" y1="80.4703" x2="50.7182" y2="88.8024" gradientUnits="userSpaceOnUse">
<stop stop-color="#B87E33"/>
<stop offset="1" stop-color="#B87E33" stop-opacity="0"/>
</linearGradient>
<radialGradient id="paint4_radial_855_2531" cx="0" cy="0" r="1" gradientUnits="userSpaceOnUse" gradientTransform="translate(55.2261 94.125) rotate(180) scale(5.32324 6.28702)">
<stop stop-color="#C67500"/>
<stop offset="1" stop-color="#C67500" stop-opacity="0"/>
</radialGradient>
<linearGradient id="paint5_linear_855_2531" x1="50.7182" y1="95.9" x2="50.7182" y2="92.1179" gradientUnits="userSpaceOnUse">
<stop stop-color="#F15CC7"/>
<stop offset="0.828" stop-color="#F15CC7" stop-opacity="0"/>
</linearGradient>
<linearGradient id="paint6_linear_855_2531" x1="-nan" y1="-nan" x2="-nan" y2="-nan" gradientUnits="userSpaceOnUse">
<stop stop-color="#FDB65D"/>
<stop offset="1" stop-color="#FDB65D" stop-opacity="0"/>
</linearGradient>
<linearGradient id="paint7_linear_855_2531" x1="65.7257" y1="79.194" x2="63.1706" y2="92.2413" gradientUnits="userSpaceOnUse">
<stop stop-color="#D69946"/>
<stop offset="1" stop-color="#E99D23"/>
</linearGradient>
<linearGradient id="paint8_linear_855_2531" x1="64.6469" y1="80.4703" x2="63.1582" y2="88.8048" gradientUnits="userSpaceOnUse">
<stop stop-color="#B87E33"/>
<stop offset="1" stop-color="#B87E33" stop-opacity="0"/>
</linearGradient>
<linearGradient id="paint9_linear_855_2531" x1="63.136" y1="95.9" x2="63.136" y2="92.1179" gradientUnits="userSpaceOnUse">
<stop stop-color="#F15CC7"/>
<stop offset="0.828" stop-color="#F15CC7" stop-opacity="0"/>
</linearGradient>
<radialGradient id="paint10_radial_855_2531" cx="0" cy="0" r="1" gradientUnits="userSpaceOnUse" gradientTransform="translate(73.0505 92.9672) rotate(-172.935) scale(5.01791 3.17223)">
<stop stop-color="#FFBD59"/>
<stop offset="1" stop-color="#FFBD59" stop-opacity="0"/>
</radialGradient>
<linearGradient id="paint11_linear_855_2531" x1="-nan" y1="-nan" x2="-nan" y2="-nan" gradientUnits="userSpaceOnUse">
<stop stop-color="#FDB65D"/>
<stop offset="1" stop-color="#FDB65D" stop-opacity="0"/>
</linearGradient>
<linearGradient id="paint12_linear_855_2531" x1="66.2739" y1="72.2445" x2="93.8005" y2="72.2445" gradientUnits="userSpaceOnUse">
<stop stop-color="#ED1C26"/>
<stop offset="1" stop-color="#EC098C"/>
</linearGradient>
<linearGradient id="paint13_linear_855_2531" x1="73.6604" y1="88.879" x2="73.6604" y2="78.0782" gradientUnits="userSpaceOnUse">
<stop offset="0.271" stop-color="#992E9B"/>
<stop offset="1" stop-color="#9F31A1" stop-opacity="0"/>
</linearGradient>
<linearGradient id="paint14_linear_855_2531" x1="64.7927" y1="52.0032" x2="72.352" y2="68.6994" gradientUnits="userSpaceOnUse">
<stop stop-color="#992E9B"/>
<stop offset="1" stop-color="#9F31A1" stop-opacity="0"/>
</linearGradient>
<linearGradient id="paint15_linear_855_2531" x1="49.4469" y1="12.834" x2="49.4469" y2="92.582" gradientUnits="userSpaceOnUse">
<stop stop-color="#ED1C26"/>
<stop offset="1" stop-color="#EC098C"/>
</linearGradient>
<linearGradient id="paint16_linear_855_2531" x1="46.1215" y1="84.7141" x2="46.1215" y2="63.8828" gradientUnits="userSpaceOnUse">
<stop stop-color="#992E9B"/>
<stop offset="1" stop-color="#9F31A1" stop-opacity="0"/>
</linearGradient>
<radialGradient id="paint17_radial_855_2531" cx="0" cy="0" r="1" gradientUnits="userSpaceOnUse" gradientTransform="translate(66.3331 69.7473) rotate(132.87) scale(11.3686 15.6341)">
<stop offset="0.525" stop-color="#BA2159"/>
<stop offset="1" stop-color="#BA2159" stop-opacity="0"/>
</radialGradient>
<linearGradient id="paint18_linear_855_2531" x1="32.5434" y1="59.4094" x2="45.3512" y2="59.4094" gradientUnits="userSpaceOnUse">
<stop stop-color="#B2516B"/>
<stop offset="1" stop-color="#B2516B" stop-opacity="0"/>
</linearGradient>
<radialGradient id="paint19_radial_855_2531" cx="0" cy="0" r="1" gradientUnits="userSpaceOnUse" gradientTransform="translate(82.4442 81.7812) rotate(-124.025) scale(67.6726 46.3246)">
<stop offset="0.904" stop-color="#B2516B" stop-opacity="0"/>
<stop offset="1" stop-color="#B2516B"/>
</radialGradient>
<linearGradient id="paint20_linear_855_2531" x1="69.2859" y1="74.6836" x2="59.1048" y2="45.4536" gradientUnits="userSpaceOnUse">
<stop stop-color="#EC098C"/>
<stop offset="1" stop-color="#ED1746"/>
</linearGradient>
<radialGradient id="paint21_radial_855_2531" cx="0" cy="0" r="1" gradientUnits="userSpaceOnUse" gradientTransform="translate(48.652 40.7063) rotate(125.838) scale(1.71297 1.52722)">
<stop offset="0.006" stop-color="#433437"/>
<stop offset="1" stop-color="#3B2838"/>
</radialGradient>
<radialGradient id="paint22_radial_855_2531" cx="0" cy="0" r="1" gradientUnits="userSpaceOnUse" gradientTransform="translate(48.7459 40.7971) rotate(137.643) scale(0.887417 0.780718)">
<stop stop-color="#5C5051"/>
<stop offset="1" stop-color="#5C5051" stop-opacity="0"/>
</radialGradient>
<linearGradient id="paint23_linear_855_2531" x1="48.0422" y1="40.136" x2="47.1954" y2="39.5954" gradientUnits="userSpaceOnUse">
<stop stop-color="#5C5051" stop-opacity="0"/>
<stop offset="1" stop-color="#5C5051"/>
</linearGradient>
<linearGradient id="paint24_linear_855_2531" x1="72.1989" y1="71.5977" x2="62.709" y2="26.3899" gradientUnits="userSpaceOnUse">
<stop stop-color="#FF589B"/>
<stop offset="1" stop-color="#FF589B" stop-opacity="0"/>
</linearGradient>
<linearGradient id="paint25_linear_855_2531" x1="71.4654" y1="29.4288" x2="66.4489" y2="33.3615" gradientUnits="userSpaceOnUse">
<stop stop-color="#FFB3D1"/>
<stop offset="1" stop-color="#FFB3D1" stop-opacity="0"/>
</linearGradient>
<linearGradient id="paint26_linear_855_2531" x1="66.1036" y1="32.4729" x2="64.4446" y2="35.2996" gradientUnits="userSpaceOnUse">
<stop stop-color="#A92E39"/>
<stop offset="1" stop-color="#A92E39" stop-opacity="0"/>
</linearGradient>
<linearGradient id="paint27_linear_855_2531" x1="-nan" y1="-nan" x2="-nan" y2="-nan" gradientUnits="userSpaceOnUse">
<stop stop-color="#FF5CAB"/>
<stop offset="1" stop-color="#FF5CAB" stop-opacity="0"/>
</linearGradient>
</defs>
</svg>
