<svg width="120" height="120" viewBox="0 0 120 120" fill="none" xmlns="http://www.w3.org/2000/svg">
<rect width="120" height="120" rx="12" fill="#FFCFB1"/>
<path d="M62.9421 98.1441H56.8565C56.1994 98.1441 55.628 97.6869 55.4566 97.0584L49.9995 74.1445H58.5708L63.9707 96.8584C64.1421 97.4869 63.6278 98.1441 62.9421 98.1441Z" fill="url(#paint0_linear_855_2567)"/>
<path d="M62.9421 98.1441H56.8565C56.1994 98.1441 55.628 97.6869 55.4566 97.0584L49.9995 74.1445H58.5708L63.9707 96.8584C64.1421 97.4869 63.6278 98.1441 62.9421 98.1441Z" fill="url(#paint1_linear_855_2567)"/>
<path d="M62.9421 98.1441H56.8565C56.1994 98.1441 55.628 97.6869 55.4566 97.0584L49.9995 74.1445H58.5708L63.9707 96.8584C64.1421 97.4869 63.6278 98.1441 62.9421 98.1441Z" fill="url(#paint2_linear_855_2567)"/>
<path d="M62.9421 98.1441H56.8565C56.1994 98.1441 55.628 97.6869 55.4566 97.0584L49.9995 74.1445H58.5708L63.9707 96.8584C64.1421 97.4869 63.6278 98.1441 62.9421 98.1441Z" fill="url(#paint3_linear_855_2567)"/>
<path d="M62.9421 98.1441H56.8565C56.1994 98.1441 55.628 97.6869 55.4566 97.0584L49.9995 74.1445H58.5708L63.9707 96.8584C64.1421 97.4869 63.6278 98.1441 62.9421 98.1441Z" fill="url(#paint4_linear_855_2567)"/>
<path d="M67.5706 98.1441H73.6562C74.3133 98.1441 74.8847 97.6869 75.0561 97.0584L80.5132 74.1445H71.9419L66.542 96.8584C66.3706 97.4869 66.8849 98.1441 67.5706 98.1441Z" fill="url(#paint5_linear_855_2567)"/>
<path d="M67.5706 98.1441H73.6562C74.3133 98.1441 74.8847 97.6869 75.0561 97.0584L80.5132 74.1445H71.9419L66.542 96.8584C66.3706 97.4869 66.8849 98.1441 67.5706 98.1441Z" fill="url(#paint6_linear_855_2567)"/>
<path d="M67.5706 98.1441H73.6562C74.3133 98.1441 74.8847 97.6869 75.0561 97.0584L80.5132 74.1445H71.9419L66.542 96.8584C66.3706 97.4869 66.8849 98.1441 67.5706 98.1441Z" fill="url(#paint7_linear_855_2567)"/>
<path d="M67.5706 98.1441H73.6562C74.3133 98.1441 74.8847 97.6869 75.0561 97.0584L80.5132 74.1445H71.9419L66.542 96.8584C66.3706 97.4869 66.8849 98.1441 67.5706 98.1441Z" fill="url(#paint8_linear_855_2567)"/>
<path d="M67.5706 98.1441H73.6562C74.3133 98.1441 74.8847 97.6869 75.0561 97.0584L80.5132 74.1445H71.9419L66.542 96.8584C66.3706 97.4869 66.8849 98.1441 67.5706 98.1441Z" fill="url(#paint9_linear_855_2567)"/>
<path d="M80.1987 21.0027C78.5702 20.9741 76.9702 21.1741 75.4559 21.517C73.5417 21.9455 72.656 24.1741 73.7417 25.8026C73.7417 25.8312 73.7703 25.8312 73.7703 25.8598C74.4274 26.8597 75.6274 27.3454 76.7988 27.0883C77.8273 26.8312 78.913 26.7169 79.9987 26.7169C88.1129 26.7169 94.6842 33.5167 94.2556 41.7166C93.8842 49.0022 87.9986 54.9163 80.6844 55.2592C78.3416 55.3735 76.1416 54.9163 74.1703 54.0306C73.9417 54.4878 73.5703 54.8592 73.1703 55.1735C73.1988 56.6306 73.1417 58.2306 72.6846 59.602C74.9417 60.5162 77.4273 61.0019 79.9987 61.0019C91.1414 61.0019 100.141 51.8878 99.9983 40.7166C99.8555 29.9168 90.9985 21.117 80.1987 21.0027Z" fill="url(#paint10_radial_855_2567)"/>
<path d="M80.1987 21.0027C78.5702 20.9741 76.9702 21.1741 75.4559 21.517C73.5417 21.9455 72.656 24.1741 73.7417 25.8026C73.7417 25.8312 73.7703 25.8312 73.7703 25.8598C74.4274 26.8597 75.6274 27.3454 76.7988 27.0883C77.8273 26.8312 78.913 26.7169 79.9987 26.7169C88.1129 26.7169 94.6842 33.5167 94.2556 41.7166C93.8842 49.0022 87.9986 54.9163 80.6844 55.2592C78.3416 55.3735 76.1416 54.9163 74.1703 54.0306C73.9417 54.4878 73.5703 54.8592 73.1703 55.1735C73.1988 56.6306 73.1417 58.2306 72.6846 59.602C74.9417 60.5162 77.4273 61.0019 79.9987 61.0019C91.1414 61.0019 100.141 51.8878 99.9983 40.7166C99.8555 29.9168 90.9985 21.117 80.1987 21.0027Z" fill="url(#paint11_radial_855_2567)"/>
<path d="M80.1987 21.0027C78.5702 20.9741 76.9702 21.1741 75.4559 21.517C73.5417 21.9455 72.656 24.1741 73.7417 25.8026C73.7417 25.8312 73.7703 25.8312 73.7703 25.8598C74.4274 26.8597 75.6274 27.3454 76.7988 27.0883C77.8273 26.8312 78.913 26.7169 79.9987 26.7169C88.1129 26.7169 94.6842 33.5167 94.2556 41.7166C93.8842 49.0022 87.9986 54.9163 80.6844 55.2592C78.3416 55.3735 76.1416 54.9163 74.1703 54.0306C73.9417 54.4878 73.5703 54.8592 73.1703 55.1735C73.1988 56.6306 73.1417 58.2306 72.6846 59.602C74.9417 60.5162 77.4273 61.0019 79.9987 61.0019C91.1414 61.0019 100.141 51.8878 99.9983 40.7166C99.8555 29.9168 90.9985 21.117 80.1987 21.0027Z" fill="url(#paint12_radial_855_2567)"/>
<path d="M80.1987 21.0027C78.5702 20.9741 76.9702 21.1741 75.4559 21.517C73.5417 21.9455 72.656 24.1741 73.7417 25.8026C73.7417 25.8312 73.7703 25.8312 73.7703 25.8598C74.4274 26.8597 75.6274 27.3454 76.7988 27.0883C77.8273 26.8312 78.913 26.7169 79.9987 26.7169C88.1129 26.7169 94.6842 33.5167 94.2556 41.7166C93.8842 49.0022 87.9986 54.9163 80.6844 55.2592C78.3416 55.3735 76.1416 54.9163 74.1703 54.0306C73.9417 54.4878 73.5703 54.8592 73.1703 55.1735C73.1988 56.6306 73.1417 58.2306 72.6846 59.602C74.9417 60.5162 77.4273 61.0019 79.9987 61.0019C91.1414 61.0019 100.141 51.8878 99.9983 40.7166C99.8555 29.9168 90.9985 21.117 80.1987 21.0027Z" fill="url(#paint13_radial_855_2567)"/>
<path d="M75.7132 43.8594C72.9133 43.8594 70.1133 44.4879 67.5991 45.7165L53.9708 52.3449C52.7994 52.9164 51.4565 52.0592 51.4565 50.7735V46.9736C51.4565 43.4022 50.1137 40.1452 47.9138 37.6595L36.3425 24.774C35.6283 23.974 34.2854 24.4597 34.2854 25.5454V31.5825C34.2854 32.5825 33.5883 33.4282 32.6626 33.8024C28.1056 35.6395 24.6313 40.4966 23.6571 45.4879C23.5142 46.2022 22.8857 46.7165 22.1714 46.7165C21.5955 46.7165 21.0432 46.9452 20.636 47.3525C20.2288 47.7597 20 48.312 20 48.8879V49.5164C20.0001 52.2667 20.9868 54.9257 22.7809 57.0102C24.575 59.0948 27.0574 60.4665 29.777 60.8762C30.7141 61.0162 31.4855 61.7705 31.4855 62.7162V65.5447C31.4841 68.407 32.4576 71.1845 34.2456 73.4197C36.0337 75.6549 38.5296 77.2145 41.3225 77.8416C42.1853 78.033 42.8567 78.7587 42.8567 79.6416V97.087C42.8567 97.6584 43.3424 98.1441 43.9424 98.1441H50.3709C50.9708 98.1441 51.4565 97.6584 51.4565 97.0584V79.8587C51.4565 79.4041 51.6372 78.968 51.9586 78.6465C52.2801 78.3251 52.7162 78.1445 53.1708 78.1445H72.4847C73.1418 78.1445 73.7704 78.4016 74.2275 78.8587L81.1131 85.7443C81.7131 86.3443 81.8845 87.23 81.5417 88.0014L77.8275 96.6584C77.4846 97.3441 77.9989 98.1441 78.7703 98.1441H84.9988C85.4273 98.1441 85.8273 97.8869 85.9702 97.4869L93.17 80.6587C93.9129 79.0016 94.2843 77.2016 94.2843 75.4016V62.4305C94.2843 59.9917 93.804 57.5768 92.8707 55.3236C91.9374 53.0705 90.5694 51.0232 88.845 49.2987C87.1205 47.5742 85.0732 46.2063 82.8201 45.273C80.5669 44.3397 78.152 43.8594 75.7132 43.8594Z" fill="url(#paint14_linear_855_2567)"/>
<path d="M75.7132 43.8594C72.9133 43.8594 70.1133 44.4879 67.5991 45.7165L53.9708 52.3449C52.7994 52.9164 51.4565 52.0592 51.4565 50.7735V46.9736C51.4565 43.4022 50.1137 40.1452 47.9138 37.6595L36.3425 24.774C35.6283 23.974 34.2854 24.4597 34.2854 25.5454V31.5825C34.2854 32.5825 33.5883 33.4282 32.6626 33.8024C28.1056 35.6395 24.6313 40.4966 23.6571 45.4879C23.5142 46.2022 22.8857 46.7165 22.1714 46.7165C21.5955 46.7165 21.0432 46.9452 20.636 47.3525C20.2288 47.7597 20 48.312 20 48.8879V49.5164C20.0001 52.2667 20.9868 54.9257 22.7809 57.0102C24.575 59.0948 27.0574 60.4665 29.777 60.8762C30.7141 61.0162 31.4855 61.7705 31.4855 62.7162V65.5447C31.4841 68.407 32.4576 71.1845 34.2456 73.4197C36.0337 75.6549 38.5296 77.2145 41.3225 77.8416C42.1853 78.033 42.8567 78.7587 42.8567 79.6416V97.087C42.8567 97.6584 43.3424 98.1441 43.9424 98.1441H50.3709C50.9708 98.1441 51.4565 97.6584 51.4565 97.0584V79.8587C51.4565 79.4041 51.6372 78.968 51.9586 78.6465C52.2801 78.3251 52.7162 78.1445 53.1708 78.1445H72.4847C73.1418 78.1445 73.7704 78.4016 74.2275 78.8587L81.1131 85.7443C81.7131 86.3443 81.8845 87.23 81.5417 88.0014L77.8275 96.6584C77.4846 97.3441 77.9989 98.1441 78.7703 98.1441H84.9988C85.4273 98.1441 85.8273 97.8869 85.9702 97.4869L93.17 80.6587C93.9129 79.0016 94.2843 77.2016 94.2843 75.4016V62.4305C94.2843 59.9917 93.804 57.5768 92.8707 55.3236C91.9374 53.0705 90.5694 51.0232 88.845 49.2987C87.1205 47.5742 85.0732 46.2063 82.8201 45.273C80.5669 44.3397 78.152 43.8594 75.7132 43.8594Z" fill="url(#paint15_radial_855_2567)"/>
<path d="M75.7132 43.8594C72.9133 43.8594 70.1133 44.4879 67.5991 45.7165L53.9708 52.3449C52.7994 52.9164 51.4565 52.0592 51.4565 50.7735V46.9736C51.4565 43.4022 50.1137 40.1452 47.9138 37.6595L36.3425 24.774C35.6283 23.974 34.2854 24.4597 34.2854 25.5454V31.5825C34.2854 32.5825 33.5883 33.4282 32.6626 33.8024C28.1056 35.6395 24.6313 40.4966 23.6571 45.4879C23.5142 46.2022 22.8857 46.7165 22.1714 46.7165C21.5955 46.7165 21.0432 46.9452 20.636 47.3525C20.2288 47.7597 20 48.312 20 48.8879V49.5164C20.0001 52.2667 20.9868 54.9257 22.7809 57.0102C24.575 59.0948 27.0574 60.4665 29.777 60.8762C30.7141 61.0162 31.4855 61.7705 31.4855 62.7162V65.5447C31.4841 68.407 32.4576 71.1845 34.2456 73.4197C36.0337 75.6549 38.5296 77.2145 41.3225 77.8416C42.1853 78.033 42.8567 78.7587 42.8567 79.6416V97.087C42.8567 97.6584 43.3424 98.1441 43.9424 98.1441H50.3709C50.9708 98.1441 51.4565 97.6584 51.4565 97.0584V79.8587C51.4565 79.4041 51.6372 78.968 51.9586 78.6465C52.2801 78.3251 52.7162 78.1445 53.1708 78.1445H72.4847C73.1418 78.1445 73.7704 78.4016 74.2275 78.8587L81.1131 85.7443C81.7131 86.3443 81.8845 87.23 81.5417 88.0014L77.8275 96.6584C77.4846 97.3441 77.9989 98.1441 78.7703 98.1441H84.9988C85.4273 98.1441 85.8273 97.8869 85.9702 97.4869L93.17 80.6587C93.9129 79.0016 94.2843 77.2016 94.2843 75.4016V62.4305C94.2843 59.9917 93.804 57.5768 92.8707 55.3236C91.9374 53.0705 90.5694 51.0232 88.845 49.2987C87.1205 47.5742 85.0732 46.2063 82.8201 45.273C80.5669 44.3397 78.152 43.8594 75.7132 43.8594Z" fill="url(#paint16_linear_855_2567)"/>
<path d="M75.7132 43.8594C72.9133 43.8594 70.1133 44.4879 67.5991 45.7165L53.9708 52.3449C52.7994 52.9164 51.4565 52.0592 51.4565 50.7735V46.9736C51.4565 43.4022 50.1137 40.1452 47.9138 37.6595L36.3425 24.774C35.6283 23.974 34.2854 24.4597 34.2854 25.5454V31.5825C34.2854 32.5825 33.5883 33.4282 32.6626 33.8024C28.1056 35.6395 24.6313 40.4966 23.6571 45.4879C23.5142 46.2022 22.8857 46.7165 22.1714 46.7165C21.5955 46.7165 21.0432 46.9452 20.636 47.3525C20.2288 47.7597 20 48.312 20 48.8879V49.5164C20.0001 52.2667 20.9868 54.9257 22.7809 57.0102C24.575 59.0948 27.0574 60.4665 29.777 60.8762C30.7141 61.0162 31.4855 61.7705 31.4855 62.7162V65.5447C31.4841 68.407 32.4576 71.1845 34.2456 73.4197C36.0337 75.6549 38.5296 77.2145 41.3225 77.8416C42.1853 78.033 42.8567 78.7587 42.8567 79.6416V97.087C42.8567 97.6584 43.3424 98.1441 43.9424 98.1441H50.3709C50.9708 98.1441 51.4565 97.6584 51.4565 97.0584V79.8587C51.4565 79.4041 51.6372 78.968 51.9586 78.6465C52.2801 78.3251 52.7162 78.1445 53.1708 78.1445H72.4847C73.1418 78.1445 73.7704 78.4016 74.2275 78.8587L81.1131 85.7443C81.7131 86.3443 81.8845 87.23 81.5417 88.0014L77.8275 96.6584C77.4846 97.3441 77.9989 98.1441 78.7703 98.1441H84.9988C85.4273 98.1441 85.8273 97.8869 85.9702 97.4869L93.17 80.6587C93.9129 79.0016 94.2843 77.2016 94.2843 75.4016V62.4305C94.2843 59.9917 93.804 57.5768 92.8707 55.3236C91.9374 53.0705 90.5694 51.0232 88.845 49.2987C87.1205 47.5742 85.0732 46.2063 82.8201 45.273C80.5669 44.3397 78.152 43.8594 75.7132 43.8594Z" fill="url(#paint17_radial_855_2567)"/>
<path d="M75.7132 43.8594C72.9133 43.8594 70.1133 44.4879 67.5991 45.7165L53.9708 52.3449C52.7994 52.9164 51.4565 52.0592 51.4565 50.7735V46.9736C51.4565 43.4022 50.1137 40.1452 47.9138 37.6595L36.3425 24.774C35.6283 23.974 34.2854 24.4597 34.2854 25.5454V31.5825C34.2854 32.5825 33.5883 33.4282 32.6626 33.8024C28.1056 35.6395 24.6313 40.4966 23.6571 45.4879C23.5142 46.2022 22.8857 46.7165 22.1714 46.7165C21.5955 46.7165 21.0432 46.9452 20.636 47.3525C20.2288 47.7597 20 48.312 20 48.8879V49.5164C20.0001 52.2667 20.9868 54.9257 22.7809 57.0102C24.575 59.0948 27.0574 60.4665 29.777 60.8762C30.7141 61.0162 31.4855 61.7705 31.4855 62.7162V65.5447C31.4841 68.407 32.4576 71.1845 34.2456 73.4197C36.0337 75.6549 38.5296 77.2145 41.3225 77.8416C42.1853 78.033 42.8567 78.7587 42.8567 79.6416V97.087C42.8567 97.6584 43.3424 98.1441 43.9424 98.1441H50.3709C50.9708 98.1441 51.4565 97.6584 51.4565 97.0584V79.8587C51.4565 79.4041 51.6372 78.968 51.9586 78.6465C52.2801 78.3251 52.7162 78.1445 53.1708 78.1445H72.4847C73.1418 78.1445 73.7704 78.4016 74.2275 78.8587L81.1131 85.7443C81.7131 86.3443 81.8845 87.23 81.5417 88.0014L77.8275 96.6584C77.4846 97.3441 77.9989 98.1441 78.7703 98.1441H84.9988C85.4273 98.1441 85.8273 97.8869 85.9702 97.4869L93.17 80.6587C93.9129 79.0016 94.2843 77.2016 94.2843 75.4016V62.4305C94.2843 59.9917 93.804 57.5768 92.8707 55.3236C91.9374 53.0705 90.5694 51.0232 88.845 49.2987C87.1205 47.5742 85.0732 46.2063 82.8201 45.273C80.5669 44.3397 78.152 43.8594 75.7132 43.8594Z" fill="url(#paint18_radial_855_2567)"/>
<path fill-rule="evenodd" clip-rule="evenodd" d="M74.0992 78.7358L69.9136 73.7731C67.9136 71.3731 64.9423 70.0017 61.828 70.0017H51.4282V85.7071H51.4568V79.8587C51.4568 79.404 51.6374 78.968 51.9589 78.6465C52.2804 78.325 52.7164 78.1444 53.171 78.1444H72.485C73.085 78.1444 73.6564 78.3558 74.0992 78.7358Z" fill="url(#paint19_linear_855_2567)"/>
<path d="M42.8564 79.6416V69.8304L39.2136 63.5819C38.8438 62.8084 38.2624 62.1556 37.5368 61.699C36.8111 61.2424 35.971 61.0007 35.1137 61.002H30.248C30.6026 61.1304 30.9102 61.3626 31.1309 61.6684C31.3515 61.9741 31.475 62.3393 31.4852 62.7162V65.5447C31.4838 68.4071 32.4573 71.1846 34.2453 73.4197C36.0334 75.6549 38.5293 77.2145 41.3221 77.8416C42.185 78.0331 42.8564 78.7588 42.8564 79.6416Z" fill="url(#paint20_linear_855_2567)"/>
<path d="M42.8564 79.6416V69.8304L39.2136 63.5819C38.8438 62.8084 38.2624 62.1556 37.5368 61.699C36.8111 61.2424 35.971 61.0007 35.1137 61.002H30.248C30.6026 61.1304 30.9102 61.3626 31.1309 61.6684C31.3515 61.9741 31.475 62.3393 31.4852 62.7162V65.5447C31.4838 68.4071 32.4573 71.1846 34.2453 73.4197C36.0334 75.6549 38.5293 77.2145 41.3221 77.8416C42.185 78.0331 42.8564 78.7588 42.8564 79.6416Z" fill="url(#paint21_radial_855_2567)"/>
<path d="M51.4565 46.9736V50.7735C49.968 51.5878 46.0081 55.9849 39.3311 59.3677C37.0711 60.5105 35.6254 61.0019 31.4855 61.0019C28.4394 61.0019 25.518 59.7918 23.364 57.6379C21.2101 55.4839 20 52.5626 20 49.5164V48.8879C20 47.6879 20.9714 46.7165 22.1714 46.7165C22.8857 46.7165 23.5142 46.2022 23.6571 45.4879C24.7428 39.9166 28.9427 34.5167 34.2854 33.2882V25.5454C34.2854 24.4597 35.6283 23.974 36.3425 24.774L47.9138 37.6595C50.1137 40.1452 51.4565 43.4022 51.4565 46.9736Z" fill="url(#paint22_linear_855_2567)"/>
<path d="M51.4565 46.9736V50.7735C49.968 51.5878 46.0081 55.9849 39.3311 59.3677C37.0711 60.5105 35.6254 61.0019 31.4855 61.0019C28.4394 61.0019 25.518 59.7918 23.364 57.6379C21.2101 55.4839 20 52.5626 20 49.5164V48.8879C20 47.6879 20.9714 46.7165 22.1714 46.7165C22.8857 46.7165 23.5142 46.2022 23.6571 45.4879C24.7428 39.9166 28.9427 34.5167 34.2854 33.2882V25.5454C34.2854 24.4597 35.6283 23.974 36.3425 24.774L47.9138 37.6595C50.1137 40.1452 51.4565 43.4022 51.4565 46.9736Z" fill="url(#paint23_radial_855_2567)"/>
<path d="M57.1422 61.1162C58.7136 61.1162 59.9993 59.8305 59.9993 58.2591V49.4021L54.2852 52.1735V58.2591C54.2852 59.8305 55.5708 61.1162 57.1422 61.1162Z" fill="url(#paint24_linear_855_2567)"/>
<path d="M67.5707 45.7166L62.7993 48.0309V55.8879C62.7993 57.4593 64.085 58.745 65.6564 58.745C67.2278 58.745 68.5135 57.4593 68.5135 55.8879V45.3167C68.1992 45.4309 67.8849 45.5738 67.5707 45.7166Z" fill="url(#paint25_linear_855_2567)"/>
<path d="M75.7131 43.8594C74.2275 43.8594 72.7703 44.0308 71.3418 44.3737V53.5163C71.3418 55.0877 72.6275 56.3734 74.1989 56.3734C75.7703 56.3734 77.056 55.0877 77.056 53.5163V43.9165C76.5988 43.8879 76.1417 43.8594 75.7131 43.8594Z" fill="url(#paint26_linear_855_2567)"/>
<path d="M47.8851 37.6595L45.7708 35.2881H42.8566C41.2852 35.2881 39.9995 36.5738 39.9995 38.1452C39.9995 39.7166 41.2852 41.0023 42.8566 41.0023H50.085C49.5136 39.7737 48.7708 38.6595 47.8851 37.6595ZM51.4279 46.9736C51.4279 45.8879 51.3136 44.8593 51.085 43.8594H47.1422C45.5708 43.8594 44.2851 45.145 44.2851 46.7164C44.2851 48.2878 45.5708 49.5735 47.1422 49.5735H51.4279V46.9736Z" fill="#C78565"/>
<path d="M24.7713 48.0308C25.1713 47.488 24.7999 46.7166 24.1142 46.7166H22.1714C21.5955 46.7166 21.0432 46.9453 20.636 47.3525C20.2288 47.7598 20 48.3121 20 48.8879V49.5165C20 50.5451 20.14 51.545 20.3943 52.4879C20.5114 52.925 21.0714 53.0079 21.3428 52.645L24.7713 48.0308Z" fill="url(#paint27_radial_855_2567)"/>
<path d="M24.7713 48.0308C25.1713 47.488 24.7999 46.7166 24.1142 46.7166H22.1714C21.5955 46.7166 21.0432 46.9453 20.636 47.3525C20.2288 47.7598 20 48.3121 20 48.8879V49.5165C20 50.5451 20.14 51.545 20.3943 52.4879C20.5114 52.925 21.0714 53.0079 21.3428 52.645L24.7713 48.0308Z" fill="url(#paint28_linear_855_2567)"/>
<g filter="url(#filter0_f_855_2567)">
<path d="M58.2422 80.6643L61.785 94.9183" stroke="url(#paint29_linear_855_2567)" stroke-width="0.2"/>
</g>
<g filter="url(#filter1_f_855_2567)">
<path d="M49.1079 76.2874V95.527" stroke="url(#paint30_linear_855_2567)" stroke-width="0.2"/>
</g>
<g filter="url(#filter2_f_855_2567)">
<path d="M73.0417 81.1987L69.6475 95.7499" stroke="url(#paint31_linear_855_2567)" stroke-opacity="0.5" stroke-width="0.2"/>
</g>
<g filter="url(#filter3_f_855_2567)">
<path d="M74.1499 48.3849C77.0527 48.0706 80.6641 48.5049 84.3297 50.6163C88.4382 52.9848 89.9096 57.1362 89.9096 60.3933V77.4501" stroke="url(#paint32_linear_855_2567)" stroke-linecap="round"/>
</g>
<g filter="url(#filter4_f_855_2567)">
<path d="M89.4644 77.0903V80.4846L83.6616 94.5014" stroke="url(#paint33_linear_855_2567)" stroke-width="0.5" stroke-linecap="round"/>
</g>
<g filter="url(#filter5_f_855_2567)">
<path d="M43.2826 42.7023L36.0713 26.0198L47.5225 40.4652C48.7236 41.9805 49.377 43.8573 49.3768 45.7908V53.9221C49.3768 54.6685 49.0803 55.3843 48.5525 55.9121C48.0247 56.4398 47.3089 56.7363 46.5625 56.7363C45.8161 56.7363 45.1003 56.4398 44.5726 55.9121C44.0448 55.3843 43.7483 54.6685 43.7483 53.9221V44.9708C43.7495 44.1908 43.591 43.4188 43.2826 42.7023Z" fill="url(#paint34_linear_855_2567)" fill-opacity="0.75"/>
</g>
<g filter="url(#filter6_f_855_2567)">
<path d="M32.291 43.8308H32.2881C31.5244 43.8308 30.9053 44.4499 30.9053 45.2136V48.2079C30.9053 48.9716 31.5244 49.5907 32.2881 49.5907H32.291C33.0547 49.5907 33.6738 48.9716 33.6738 48.2079V45.2136C33.6738 44.4499 33.0547 43.8308 32.291 43.8308Z" fill="#D58E49"/>
</g>
<path d="M32.871 43.8308H32.8682C32.1045 43.8308 31.4854 44.4499 31.4854 45.2136V48.2079C31.4854 48.9716 32.1045 49.5907 32.8682 49.5907H32.871C33.6348 49.5907 34.2539 48.9716 34.2539 48.2079V45.2136C34.2539 44.4499 33.6348 43.8308 32.871 43.8308Z" fill="url(#paint35_linear_855_2567)"/>
<path d="M32.871 43.8308H32.8682C32.1045 43.8308 31.4854 44.4499 31.4854 45.2136V48.2079C31.4854 48.9716 32.1045 49.5907 32.8682 49.5907H32.871C33.6348 49.5907 34.2539 48.9716 34.2539 48.2079V45.2136C34.2539 44.4499 33.6348 43.8308 32.871 43.8308Z" fill="url(#paint36_linear_855_2567)"/>
<g filter="url(#filter7_f_855_2567)">
<path d="M77.0532 23.4313C80.2074 22.8656 88.393 23.4313 93.0358 28.0741C99.7842 34.8225 98.3042 46.7337 93.0358 52.7165" stroke="url(#paint37_linear_855_2567)" stroke-width="0.3" stroke-linecap="round"/>
</g>
<defs>
<filter id="filter0_f_855_2567" x="57.445" y="79.9401" width="5.13682" height="15.7022" filterUnits="userSpaceOnUse" color-interpolation-filters="sRGB">
<feFlood flood-opacity="0" result="BackgroundImageFix"/>
<feBlend mode="normal" in="SourceGraphic" in2="BackgroundImageFix" result="shape"/>
<feGaussianBlur stdDeviation="0.35" result="effect1_foregroundBlur_855_2567"/>
</filter>
<filter id="filter1_f_855_2567" x="48.3078" y="75.5874" width="1.6002" height="20.6397" filterUnits="userSpaceOnUse" color-interpolation-filters="sRGB">
<feFlood flood-opacity="0" result="BackgroundImageFix"/>
<feBlend mode="normal" in="SourceGraphic" in2="BackgroundImageFix" result="shape"/>
<feGaussianBlur stdDeviation="0.35" result="effect1_foregroundBlur_855_2567"/>
</filter>
<filter id="filter2_f_855_2567" x="68.8503" y="80.476" width="4.98887" height="15.9967" filterUnits="userSpaceOnUse" color-interpolation-filters="sRGB">
<feFlood flood-opacity="0" result="BackgroundImageFix"/>
<feBlend mode="normal" in="SourceGraphic" in2="BackgroundImageFix" result="shape"/>
<feGaussianBlur stdDeviation="0.35" result="effect1_foregroundBlur_855_2567"/>
</filter>
<filter id="filter3_f_855_2567" x="70.6499" y="44.7932" width="22.7598" height="36.157" filterUnits="userSpaceOnUse" color-interpolation-filters="sRGB">
<feFlood flood-opacity="0" result="BackgroundImageFix"/>
<feBlend mode="normal" in="SourceGraphic" in2="BackgroundImageFix" result="shape"/>
<feGaussianBlur stdDeviation="1.5" result="effect1_foregroundBlur_855_2567"/>
</filter>
<filter id="filter4_f_855_2567" x="81.4116" y="74.8403" width="10.3027" height="21.9111" filterUnits="userSpaceOnUse" color-interpolation-filters="sRGB">
<feFlood flood-opacity="0" result="BackgroundImageFix"/>
<feBlend mode="normal" in="SourceGraphic" in2="BackgroundImageFix" result="shape"/>
<feGaussianBlur stdDeviation="1" result="effect1_foregroundBlur_855_2567"/>
</filter>
<filter id="filter5_f_855_2567" x="35.0713" y="25.0198" width="15.3057" height="32.7166" filterUnits="userSpaceOnUse" color-interpolation-filters="sRGB">
<feFlood flood-opacity="0" result="BackgroundImageFix"/>
<feBlend mode="normal" in="SourceGraphic" in2="BackgroundImageFix" result="shape"/>
<feGaussianBlur stdDeviation="0.5" result="effect1_foregroundBlur_855_2567"/>
</filter>
<filter id="filter6_f_855_2567" x="30.4053" y="43.3308" width="3.76855" height="6.76001" filterUnits="userSpaceOnUse" color-interpolation-filters="sRGB">
<feFlood flood-opacity="0" result="BackgroundImageFix"/>
<feBlend mode="normal" in="SourceGraphic" in2="BackgroundImageFix" result="shape"/>
<feGaussianBlur stdDeviation="0.25" result="effect1_foregroundBlur_855_2567"/>
</filter>
<filter id="filter7_f_855_2567" x="76.3033" y="22.5013" width="22.0057" height="30.9651" filterUnits="userSpaceOnUse" color-interpolation-filters="sRGB">
<feFlood flood-opacity="0" result="BackgroundImageFix"/>
<feBlend mode="normal" in="SourceGraphic" in2="BackgroundImageFix" result="shape"/>
<feGaussianBlur stdDeviation="0.3" result="effect1_foregroundBlur_855_2567"/>
</filter>
<linearGradient id="paint0_linear_855_2567" x1="54.5823" y1="89.0785" x2="52.448" y2="70.3189" gradientUnits="userSpaceOnUse">
<stop stop-color="#EC9771"/>
<stop offset="0.754" stop-color="#CF6247"/>
</linearGradient>
<linearGradient id="paint1_linear_855_2567" x1="54.3851" y1="74.1445" x2="55.528" y2="82.1387" gradientUnits="userSpaceOnUse">
<stop stop-color="#CF6144"/>
<stop offset="1" stop-color="#BC5035" stop-opacity="0"/>
</linearGradient>
<linearGradient id="paint2_linear_855_2567" x1="62.5278" y1="80.9101" x2="59.5279" y2="81.593" gradientUnits="userSpaceOnUse">
<stop stop-color="#CF6144"/>
<stop offset="1" stop-color="#BC5035" stop-opacity="0"/>
</linearGradient>
<linearGradient id="paint3_linear_855_2567" x1="49.9995" y1="82.9958" x2="53.1995" y2="82.6501" gradientUnits="userSpaceOnUse">
<stop stop-color="#CF6144"/>
<stop offset="1" stop-color="#BC5035" stop-opacity="0"/>
</linearGradient>
<linearGradient id="paint4_linear_855_2567" x1="57.0022" y1="99.5783" x2="57.0022" y2="94.827" gradientUnits="userSpaceOnUse">
<stop stop-color="#EF74E3"/>
<stop offset="1" stop-color="#EB8D98" stop-opacity="0"/>
</linearGradient>
<linearGradient id="paint5_linear_855_2567" x1="71.0934" y1="89.0785" x2="68.9563" y2="70.3189" gradientUnits="userSpaceOnUse">
<stop stop-color="#EC9771"/>
<stop offset="0.754" stop-color="#CF6247"/>
</linearGradient>
<linearGradient id="paint6_linear_855_2567" x1="74.3276" y1="74.1445" x2="70.8676" y2="87.3929" gradientUnits="userSpaceOnUse">
<stop stop-color="#CF6144"/>
<stop offset="1" stop-color="#BC5035" stop-opacity="0"/>
</linearGradient>
<linearGradient id="paint7_linear_855_2567" x1="80.5132" y1="82.4387" x2="77.2847" y2="81.7787" gradientUnits="userSpaceOnUse">
<stop stop-color="#CF6144"/>
<stop offset="1" stop-color="#BC5035" stop-opacity="0"/>
</linearGradient>
<linearGradient id="paint8_linear_855_2567" x1="66.5106" y1="82.9958" x2="71.0591" y2="84.1986" gradientUnits="userSpaceOnUse">
<stop stop-color="#CF6144"/>
<stop offset="1" stop-color="#BC5035" stop-opacity="0"/>
</linearGradient>
<linearGradient id="paint9_linear_855_2567" x1="73.5133" y1="99.5783" x2="73.5133" y2="94.827" gradientUnits="userSpaceOnUse">
<stop stop-color="#EF74E3"/>
<stop offset="1" stop-color="#EB8D98" stop-opacity="0"/>
</linearGradient>
<radialGradient id="paint10_radial_855_2567" cx="0" cy="0" r="1" gradientUnits="userSpaceOnUse" gradientTransform="translate(86.3424 55.3968) rotate(-58.259) scale(45.9843)">
<stop stop-color="#E66F2C"/>
<stop offset="1" stop-color="#FFDEA7"/>
</radialGradient>
<radialGradient id="paint11_radial_855_2567" cx="0" cy="0" r="1" gradientUnits="userSpaceOnUse" gradientTransform="translate(72.6846 25.394) rotate(5.71438) scale(10.7604 7.34778)">
<stop stop-color="#D08E47"/>
<stop offset="1" stop-color="#D89B5A" stop-opacity="0"/>
</radialGradient>
<radialGradient id="paint12_radial_855_2567" cx="0" cy="0" r="1" gradientUnits="userSpaceOnUse" gradientTransform="translate(84.8215 45.2165) rotate(-30.9638) scale(16.6595 29.5046)">
<stop stop-color="#D48B5E"/>
<stop offset="1" stop-color="#D48B5E" stop-opacity="0"/>
</radialGradient>
<radialGradient id="paint13_radial_855_2567" cx="0" cy="0" r="1" gradientUnits="userSpaceOnUse" gradientTransform="translate(89.2843 37.5367) rotate(-20.3655) scale(12.5713 25.0284)">
<stop stop-color="#BB704E"/>
<stop offset="0.592" stop-color="#C38062" stop-opacity="0"/>
</radialGradient>
<linearGradient id="paint14_linear_855_2567" x1="57.1422" y1="43.6794" x2="57.1422" y2="98.1441" gradientUnits="userSpaceOnUse">
<stop stop-color="#FCAC5D"/>
<stop offset="0.469" stop-color="#EE9B63"/>
<stop offset="1" stop-color="#E28666"/>
</linearGradient>
<radialGradient id="paint15_radial_855_2567" cx="0" cy="0" r="1" gradientUnits="userSpaceOnUse" gradientTransform="translate(71.6076 80.3044) rotate(-51.1926) scale(21.6548 37.4399)">
<stop stop-color="#DA7C40"/>
<stop offset="1" stop-color="#EC9964" stop-opacity="0"/>
</radialGradient>
<linearGradient id="paint16_linear_855_2567" x1="57.1422" y1="102.55" x2="57.1422" y2="93.787" gradientUnits="userSpaceOnUse">
<stop stop-color="#EF74E3"/>
<stop offset="1" stop-color="#EB8D98" stop-opacity="0"/>
</linearGradient>
<radialGradient id="paint17_radial_855_2567" cx="0" cy="0" r="1" gradientUnits="userSpaceOnUse" gradientTransform="translate(71.6076 84.1443) rotate(-58.2986) scale(14.272 12.5556)">
<stop stop-color="#D74DC9"/>
<stop offset="1" stop-color="#EB8D98" stop-opacity="0"/>
</radialGradient>
<radialGradient id="paint18_radial_855_2567" cx="0" cy="0" r="1" gradientUnits="userSpaceOnUse" gradientTransform="translate(33.5731 44.8601) rotate(56.411) scale(19.6889 19.827)">
<stop stop-color="#E4AB6F"/>
<stop offset="1" stop-color="#E4AB6F" stop-opacity="0"/>
</radialGradient>
<linearGradient id="paint19_linear_855_2567" x1="62.8137" y1="70.0017" x2="62.8137" y2="78.8587" gradientUnits="userSpaceOnUse">
<stop offset="0.226" stop-color="#F3BDB0"/>
<stop offset="1" stop-color="#E5A0A5"/>
</linearGradient>
<linearGradient id="paint20_linear_855_2567" x1="36.5536" y1="61.6448" x2="36.5536" y2="78.4302" gradientUnits="userSpaceOnUse">
<stop stop-color="#ECBC95"/>
<stop offset="0.484" stop-color="#F3BDB0"/>
<stop offset="1" stop-color="#E5A0A5"/>
</linearGradient>
<radialGradient id="paint21_radial_855_2567" cx="0" cy="0" r="1" gradientUnits="userSpaceOnUse" gradientTransform="translate(42.3221 67.003) rotate(145.797) scale(13.8183 20.1928)">
<stop offset="0.62" stop-color="#CF8C61" stop-opacity="0"/>
<stop offset="1" stop-color="#CF8C61"/>
</radialGradient>
<linearGradient id="paint22_linear_855_2567" x1="33.0369" y1="55.7534" x2="27.2341" y2="63.7876" gradientUnits="userSpaceOnUse">
<stop stop-color="#D1867C" stop-opacity="0"/>
<stop offset="0.849" stop-color="#D1867C"/>
</linearGradient>
<radialGradient id="paint23_radial_855_2567" cx="0" cy="0" r="1" gradientUnits="userSpaceOnUse" gradientTransform="translate(23.7514 39.3223) rotate(34.3397) scale(10.9212 29.7329)">
<stop stop-color="#CF8C61"/>
<stop offset="0.414" stop-color="#CF8C61" stop-opacity="0"/>
</radialGradient>
<linearGradient id="paint24_linear_855_2567" x1="57.1422" y1="49.4021" x2="57.1422" y2="61.1162" gradientUnits="userSpaceOnUse">
<stop stop-color="#A36A45"/>
<stop offset="0.266" stop-color="#BD7D53"/>
<stop offset="1" stop-color="#CD8A60"/>
</linearGradient>
<linearGradient id="paint25_linear_855_2567" x1="65.6564" y1="43.7881" x2="65.6564" y2="57.6278" gradientUnits="userSpaceOnUse">
<stop stop-color="#A36A45"/>
<stop offset="0.266" stop-color="#BD7D53"/>
<stop offset="1" stop-color="#CD8A60"/>
</linearGradient>
<linearGradient id="paint26_linear_855_2567" x1="74.1989" y1="42.8965" x2="74.1989" y2="53.6106" gradientUnits="userSpaceOnUse">
<stop stop-color="#A36A45"/>
<stop offset="0.266" stop-color="#BD7D53"/>
<stop offset="1" stop-color="#CD8A60"/>
</linearGradient>
<radialGradient id="paint27_radial_855_2567" cx="0" cy="0" r="1" gradientUnits="userSpaceOnUse" gradientTransform="translate(23.7056 47.9825) rotate(140.717) scale(3.34514 2.31684)">
<stop offset="0.022" stop-color="#6B5E60"/>
<stop offset="0.991" stop-color="#433338"/>
</radialGradient>
<linearGradient id="paint28_linear_855_2567" x1="25.7085" y1="54.6735" x2="25.7085" y2="48.9594" gradientUnits="userSpaceOnUse">
<stop stop-color="#552D52"/>
<stop offset="1" stop-color="#552D52" stop-opacity="0"/>
</linearGradient>
<linearGradient id="paint29_linear_855_2567" x1="56.9194" y1="81.9557" x2="71.5791" y2="100.041" gradientUnits="userSpaceOnUse">
<stop stop-color="#FFDEAB"/>
<stop offset="1" stop-color="#FFDEAB" stop-opacity="0"/>
</linearGradient>
<linearGradient id="paint30_linear_855_2567" x1="-nan" y1="-nan" x2="-nan" y2="-nan" gradientUnits="userSpaceOnUse">
<stop stop-color="#FFDEAB"/>
<stop offset="1" stop-color="#FFDEAB" stop-opacity="0"/>
</linearGradient>
<linearGradient id="paint31_linear_855_2567" x1="69.6046" y1="81.9559" x2="84.2643" y2="100.041" gradientUnits="userSpaceOnUse">
<stop stop-color="#FFDEAB"/>
<stop offset="1" stop-color="#FFDEAB" stop-opacity="0"/>
</linearGradient>
<linearGradient id="paint32_linear_855_2567" x1="85.2668" y1="65.6617" x2="90.881" y2="102.747" gradientUnits="userSpaceOnUse">
<stop stop-color="#FFDEAB"/>
<stop offset="1" stop-color="#FFDEAB" stop-opacity="0"/>
</linearGradient>
<linearGradient id="paint33_linear_855_2567" x1="94.2843" y1="82.5359" x2="88.1044" y2="101.801" gradientUnits="userSpaceOnUse">
<stop stop-color="#FFDEAB"/>
<stop offset="1" stop-color="#FFDEAB" stop-opacity="0"/>
</linearGradient>
<linearGradient id="paint34_linear_855_2567" x1="42.7226" y1="26.0198" x2="42.7226" y2="64.9476" gradientUnits="userSpaceOnUse">
<stop stop-color="#FFDEAB"/>
<stop offset="1" stop-color="#FFDEAB" stop-opacity="0"/>
</linearGradient>
<linearGradient id="paint35_linear_855_2567" x1="33.8653" y1="46.7108" x2="32.1339" y2="46.7108" gradientUnits="userSpaceOnUse">
<stop offset="0.225" stop-color="#6B5E60"/>
<stop offset="1" stop-color="#433338"/>
</linearGradient>
<linearGradient id="paint36_linear_855_2567" x1="34.6881" y1="50.5993" x2="34.6881" y2="45.7393" gradientUnits="userSpaceOnUse">
<stop stop-color="#552D52"/>
<stop offset="1" stop-color="#552D52" stop-opacity="0"/>
</linearGradient>
<linearGradient id="paint37_linear_855_2567" x1="90.1787" y1="32.894" x2="91.2158" y2="57.8592" gradientUnits="userSpaceOnUse">
<stop stop-color="#FFDEAB"/>
<stop offset="1" stop-color="#FFDEAB" stop-opacity="0"/>
</linearGradient>
</defs>
</svg>
