<svg width="120" height="120" viewBox="0 0 120 120" fill="none" xmlns="http://www.w3.org/2000/svg">
<rect width="120" height="120" rx="12" fill="#89029C"/>
<mask id="mask0_855_2618" style="mask-type:luminance" maskUnits="userSpaceOnUse" x="22" y="22" width="76" height="76">
<path d="M22 22H98V98H22V22Z" fill="white"/>
</mask>
<g mask="url(#mask0_855_2618)">
<path d="M36.0599 64.7214L27.1062 55.7677C26.0374 54.6989 26.7974 52.8464 28.3174 52.8464H36.0599V64.7214Z" fill="url(#paint0_radial_855_2618)"/>
<path d="M36.0599 64.7214L27.1062 55.7677C26.0374 54.6989 26.7974 52.8464 28.3174 52.8464H36.0599V64.7214Z" fill="url(#paint1_linear_855_2618)" fill-opacity="0.75"/>
<path d="M36.0599 64.7214L27.1062 55.7677C26.0374 54.6989 26.7974 52.8464 28.3174 52.8464H36.0599V64.7214Z" fill="url(#paint2_linear_855_2618)" fill-opacity="0.75"/>
<path d="M36.0599 64.7214L27.1062 55.7677C26.0374 54.6989 26.7974 52.8464 28.3174 52.8464H36.0599V64.7214Z" fill="url(#paint3_radial_855_2618)"/>
<path d="M83.5835 64.7214L92.5372 55.7677C93.606 54.6989 92.846 52.8464 91.326 52.8464H83.5835V64.7214Z" fill="url(#paint4_radial_855_2618)"/>
<path d="M83.5835 64.7214L92.5372 55.7677C93.606 54.6989 92.846 52.8464 91.326 52.8464H83.5835V64.7214Z" fill="url(#paint5_linear_855_2618)" fill-opacity="0.75"/>
<path d="M83.5835 64.7214L92.5372 55.7677C93.606 54.6989 92.846 52.8464 91.326 52.8464H83.5835V64.7214Z" fill="url(#paint6_linear_855_2618)" fill-opacity="0.75"/>
<g filter="url(#filter0_f_855_2618)">
<path d="M92.0317 54.6822C92.3609 54.6822 92.6278 54.4153 92.6278 54.0861C92.6278 53.7569 92.3609 53.49 92.0317 53.49C91.7024 53.49 91.4355 53.7569 91.4355 54.0861C91.4355 54.4153 91.7024 54.6822 92.0317 54.6822Z" fill="white"/>
</g>
<path d="M83.7189 46.8543C82.0374 35.3142 71.8677 26.7214 59.8716 26.7214C47.8754 26.7214 37.7318 35.3142 36.0242 46.8543L31.4167 87.3599C31.0011 90.0674 32.8298 92.7987 35.6347 93.1549C38.0714 93.4637 39.3729 93.3734 42.4866 90.8749C45.6809 87.7637 50.8751 87.7637 54.0671 90.8749C57.2614 93.9862 62.4556 93.9862 65.6499 90.8749C68.8443 87.7637 74.0384 87.7637 77.2328 90.8749C78.9404 92.5374 81.1824 93.2974 83.4007 93.2024C86.4739 93.0599 88.7421 90.2812 88.3027 87.3124L83.7189 46.8543Z" fill="url(#paint7_radial_855_2618)"/>
<path d="M83.7189 46.8543C82.0374 35.3142 71.8677 26.7214 59.8716 26.7214C47.8754 26.7214 37.7318 35.3142 36.0242 46.8543L31.4167 87.3599C31.0011 90.0674 32.8298 92.7987 35.6347 93.1549C38.0714 93.4637 39.3729 93.3734 42.4866 90.8749C45.6809 87.7637 50.8751 87.7637 54.0671 90.8749C57.2614 93.9862 62.4556 93.9862 65.6499 90.8749C68.8443 87.7637 74.0384 87.7637 77.2328 90.8749C78.9404 92.5374 81.1824 93.2974 83.4007 93.2024C86.4739 93.0599 88.7421 90.2812 88.3027 87.3124L83.7189 46.8543Z" fill="url(#paint8_radial_855_2618)"/>
<path d="M83.7189 46.8543C82.0374 35.3142 71.8677 26.7214 59.8716 26.7214C47.8754 26.7214 37.7318 35.3142 36.0242 46.8543L31.4167 87.3599C31.0011 90.0674 32.8298 92.7987 35.6347 93.1549C38.0714 93.4637 39.3729 93.3734 42.4866 90.8749C45.6809 87.7637 50.8751 87.7637 54.0671 90.8749C57.2614 93.9862 62.4556 93.9862 65.6499 90.8749C68.8443 87.7637 74.0384 87.7637 77.2328 90.8749C78.9404 92.5374 81.1824 93.2974 83.4007 93.2024C86.4739 93.0599 88.7421 90.2812 88.3027 87.3124L83.7189 46.8543Z" fill="url(#paint9_radial_855_2618)"/>
<path d="M83.7189 46.8543C82.0374 35.3142 71.8677 26.7214 59.8716 26.7214C47.8754 26.7214 37.7318 35.3142 36.0242 46.8543L31.4167 87.3599C31.0011 90.0674 32.8298 92.7987 35.6347 93.1549C38.0714 93.4637 39.3729 93.3734 42.4866 90.8749C45.6809 87.7637 50.8751 87.7637 54.0671 90.8749C57.2614 93.9862 62.4556 93.9862 65.6499 90.8749C68.8443 87.7637 74.0384 87.7637 77.2328 90.8749C78.9404 92.5374 81.1824 93.2974 83.4007 93.2024C86.4739 93.0599 88.7421 90.2812 88.3027 87.3124L83.7189 46.8543Z" fill="url(#paint10_radial_855_2618)" fill-opacity="0.75"/>
<path d="M83.7189 46.8543C82.0374 35.3142 71.8677 26.7214 59.8716 26.7214C47.8754 26.7214 37.7318 35.3142 36.0242 46.8543L31.4167 87.3599C31.0011 90.0674 32.8298 92.7987 35.6347 93.1549C38.0714 93.4637 39.3729 93.3734 42.4866 90.8749C45.6809 87.7637 50.8751 87.7637 54.0671 90.8749C57.2614 93.9862 62.4556 93.9862 65.6499 90.8749C68.8443 87.7637 74.0384 87.7637 77.2328 90.8749C78.9404 92.5374 81.1824 93.2974 83.4007 93.2024C86.4739 93.0599 88.7421 90.2812 88.3027 87.3124L83.7189 46.8543Z" fill="url(#paint11_linear_855_2618)"/>
<g filter="url(#filter1_f_855_2618)">
<path d="M86.2744 88.0535C84.4552 88.2248 82.6222 87.9337 80.9455 87.2071C79.2689 86.4804 77.8031 85.3419 76.6842 83.8973L73.0172 79.1686C72.6948 78.7527 72.2856 78.412 71.818 78.1702C71.3505 77.9285 70.836 77.7916 70.3101 77.769C69.7843 77.7464 69.2599 77.8386 68.7734 78.0393C68.2868 78.24 67.8499 78.5444 67.4929 78.9311L61.4509 85.4766C60.6558 86.3379 59.5703 86.8748 58.4032 86.984C57.236 87.0932 56.0698 86.7669 55.1287 86.068L53.8414 85.1133C52.2614 83.9396 50.3559 83.2857 48.3882 83.2419C46.4205 83.1981 44.4878 83.7665 42.8571 84.8686L37.9123 88.2103C37.6411 88.3939 37.3348 88.5194 37.0127 88.579C36.6906 88.6385 36.3597 88.6308 36.0407 88.5563C35.7218 88.4818 35.4217 88.3421 35.1593 88.1461C34.8969 87.95 34.6779 87.7018 34.5161 87.417L32.6921 84.2084L32.3952 86.5834C31.9914 89.2196 33.5352 91.5234 36.2664 91.8678C38.6414 92.1694 39.9073 92.0815 42.9402 89.6495C44.4559 88.1922 46.477 87.3782 48.5796 87.3782C50.6823 87.3782 52.7033 88.1922 54.2191 89.6495C57.3303 92.6776 62.4057 92.8415 65.5169 89.811C69.6352 86.7306 73.6798 87.1961 76.7792 89.6495C78.4417 91.2669 80.6267 92.0079 82.7879 91.9153C83.8686 91.8678 85.6047 90.9486 86.2744 88.0535Z" fill="url(#paint12_linear_855_2618)"/>
<path d="M86.2744 88.0535C84.4552 88.2248 82.6222 87.9337 80.9455 87.2071C79.2689 86.4804 77.8031 85.3419 76.6842 83.8973L73.0172 79.1686C72.6948 78.7527 72.2856 78.412 71.818 78.1702C71.3505 77.9285 70.836 77.7916 70.3101 77.769C69.7843 77.7464 69.2599 77.8386 68.7734 78.0393C68.2868 78.24 67.8499 78.5444 67.4929 78.9311L61.4509 85.4766C60.6558 86.3379 59.5703 86.8748 58.4032 86.984C57.236 87.0932 56.0698 86.7669 55.1287 86.068L53.8414 85.1133C52.2614 83.9396 50.3559 83.2857 48.3882 83.2419C46.4205 83.1981 44.4878 83.7665 42.8571 84.8686L37.9123 88.2103C37.6411 88.3939 37.3348 88.5194 37.0127 88.579C36.6906 88.6385 36.3597 88.6308 36.0407 88.5563C35.7218 88.4818 35.4217 88.3421 35.1593 88.1461C34.8969 87.95 34.6779 87.7018 34.5161 87.417L32.6921 84.2084L32.3952 86.5834C31.9914 89.2196 33.5352 91.5234 36.2664 91.8678C38.6414 92.1694 39.9073 92.0815 42.9402 89.6495C44.4559 88.1922 46.477 87.3782 48.5796 87.3782C50.6823 87.3782 52.7033 88.1922 54.2191 89.6495C57.3303 92.6776 62.4057 92.8415 65.5169 89.811C69.6352 86.7306 73.6798 87.1961 76.7792 89.6495C78.4417 91.2669 80.6267 92.0079 82.7879 91.9153C83.8686 91.8678 85.6047 90.9486 86.2744 88.0535Z" fill="url(#paint13_linear_855_2618)"/>
</g>
<g filter="url(#filter2_f_855_2618)">
<path d="M57.4327 71.1958C65.256 71.1958 66.5052 61.4488 66.7475 59.4942C66.9327 57.91 66.0944 57.1097 65.18 56.5682C64.268 56.029 61.5296 55.5255 57.4327 55.5255C53.3335 55.5255 54.331 52.0889 53.4 52.628C52.469 53.1672 49.79 48.8589 48.4267 52.628C46.8735 56.9339 44.3774 71.1958 57.4327 71.1958Z" fill="url(#paint14_radial_855_2618)" fill-opacity="0.75"/>
</g>
<path d="M59.9736 62.3749C48.0796 62.3749 48.0796 50.4785 48.0796 50.4785H71.8676C71.8676 50.4785 71.8652 62.3749 59.9736 62.3749Z" fill="url(#paint15_radial_855_2618)"/>
<path d="M60.0001 67.4716C67.1394 67.4716 68.277 60.3348 68.4979 58.5511C68.6689 57.1071 67.9041 56.3756 67.0729 55.884C66.2393 55.39 63.7408 54.9316 60.0025 54.9316C56.2643 54.9316 53.7824 55.39 52.9345 55.8816C52.0843 56.3756 51.3195 57.1071 51.5071 58.5511C51.728 60.3348 52.8633 67.4716 60.0001 67.4716Z" fill="url(#paint16_radial_855_2618)"/>
<g opacity="0.5" filter="url(#filter3_f_855_2618)">
<path d="M63.3726 63.2227C65.0731 62.3749 66.7736 60.6744 66.7736 58.126" stroke="white"/>
</g>
<path d="M50.6545 45.6691C50.5094 45.7484 50.3498 45.7977 50.1853 45.814C50.0207 45.8302 49.8545 45.8132 49.6967 45.7638C49.5389 45.7144 49.3927 45.6336 49.2668 45.5265C49.1408 45.4193 49.0378 45.2878 48.9639 45.1399C48.8899 44.992 48.8465 44.8307 48.8363 44.6656C48.8261 44.5006 48.8493 44.3351 48.9045 44.1792C48.9596 44.0234 49.0457 43.8802 49.1574 43.7583C49.2692 43.6364 49.4044 43.5383 49.5549 43.4698L52.2695 42.1113H56.2571C56.2564 42.3394 56.1923 42.5628 56.0719 42.7566C55.9515 42.9504 55.7797 43.1069 55.5755 43.2086L50.6545 45.6691Z" fill="url(#paint17_linear_855_2618)"/>
<path d="M50.6545 38.5537C50.5094 38.4743 50.3498 38.4251 50.1853 38.4088C50.0207 38.3925 49.8545 38.4096 49.6967 38.459C49.5389 38.5084 49.3927 38.5891 49.2668 38.6963C49.1408 38.8035 49.0378 38.935 48.9639 39.0829C48.8899 39.2308 48.8465 39.3921 48.8363 39.5572C48.8261 39.7222 48.8493 39.8876 48.9045 40.0435C48.9596 40.1994 49.0457 40.3426 49.1574 40.4645C49.2692 40.5864 49.4044 40.6845 49.5549 40.7529L52.2695 42.1114H56.2571C56.2564 41.8833 56.1923 41.6599 56.0719 41.4662C55.9515 41.2724 55.7797 41.1159 55.5755 41.0142L50.6545 38.5537Z" fill="url(#paint18_linear_855_2618)"/>
<path d="M68.3052 45.7071C70.2741 45.7071 71.8677 44.1348 71.8677 42.1968C71.8677 40.2588 70.2741 38.689 68.3052 38.689C66.3387 38.689 64.7427 40.2588 64.7427 42.1968C64.7502 43.1346 65.1296 44.0309 65.7976 44.6891C66.4656 45.3473 67.3675 45.7134 68.3052 45.7071Z" fill="url(#paint19_radial_855_2618)"/>
<g filter="url(#filter4_f_855_2618)">
<path d="M52.1387 50.9204L76.7817 86.0585C73.3664 82.7929 72.4734 84.1704 67.873 87.7329C63.2703 91.2954 58.373 93.2263 50.6543 87.7329C46.6049 84.852 41.2018 88.2293 38.7793 91.1482L52.1387 50.9204Z" fill="url(#paint20_linear_855_2618)"/>
</g>
<g filter="url(#filter5_f_855_2618)">
<path d="M79.4463 71.4309L83.8994 91.4688" stroke="url(#paint21_linear_855_2618)" stroke-width="1.1" stroke-linecap="round"/>
</g>
</g>
<defs>
<filter id="filter0_f_855_2618" x="90.6855" y="52.74" width="2.69238" height="2.69214" filterUnits="userSpaceOnUse" color-interpolation-filters="sRGB">
<feFlood flood-opacity="0" result="BackgroundImageFix"/>
<feBlend mode="normal" in="SourceGraphic" in2="BackgroundImageFix" result="shape"/>
<feGaussianBlur stdDeviation="0.375" result="effect1_foregroundBlur_855_2618"/>
</filter>
<filter id="filter1_f_855_2618" x="31.3315" y="76.7656" width="55.9429" height="16.2383" filterUnits="userSpaceOnUse" color-interpolation-filters="sRGB">
<feFlood flood-opacity="0" result="BackgroundImageFix"/>
<feBlend mode="normal" in="SourceGraphic" in2="BackgroundImageFix" result="shape"/>
<feGaussianBlur stdDeviation="0.5" result="effect1_foregroundBlur_855_2618"/>
</filter>
<filter id="filter2_f_855_2618" x="45.6509" y="49.5664" width="22.6226" height="23.1294" filterUnits="userSpaceOnUse" color-interpolation-filters="sRGB">
<feFlood flood-opacity="0" result="BackgroundImageFix"/>
<feBlend mode="normal" in="SourceGraphic" in2="BackgroundImageFix" result="shape"/>
<feGaussianBlur stdDeviation="0.75" result="effect1_foregroundBlur_855_2618"/>
</filter>
<filter id="filter3_f_855_2618" x="62.1494" y="57.126" width="6.12402" height="7.54419" filterUnits="userSpaceOnUse" color-interpolation-filters="sRGB">
<feFlood flood-opacity="0" result="BackgroundImageFix"/>
<feBlend mode="normal" in="SourceGraphic" in2="BackgroundImageFix" result="shape"/>
<feGaussianBlur stdDeviation="0.5" result="effect1_foregroundBlur_855_2618"/>
</filter>
<filter id="filter4_f_855_2618" x="36.7793" y="48.9204" width="42.0024" height="44.2461" filterUnits="userSpaceOnUse" color-interpolation-filters="sRGB">
<feFlood flood-opacity="0" result="BackgroundImageFix"/>
<feBlend mode="normal" in="SourceGraphic" in2="BackgroundImageFix" result="shape"/>
<feGaussianBlur stdDeviation="1" result="effect1_foregroundBlur_855_2618"/>
</filter>
<filter id="filter5_f_855_2618" x="76.396" y="68.3809" width="10.5537" height="26.1379" filterUnits="userSpaceOnUse" color-interpolation-filters="sRGB">
<feFlood flood-opacity="0" result="BackgroundImageFix"/>
<feBlend mode="normal" in="SourceGraphic" in2="BackgroundImageFix" result="shape"/>
<feGaussianBlur stdDeviation="1.25" result="effect1_foregroundBlur_855_2618"/>
</filter>
<radialGradient id="paint0_radial_855_2618" cx="0" cy="0" r="1" gradientUnits="userSpaceOnUse" gradientTransform="translate(40.2637 51.9606) rotate(103.951) scale(17.4362 21.0909)">
<stop offset="0.213" stop-color="#F2F0F4"/>
<stop offset="0.887" stop-color="#D1BBE0"/>
</radialGradient>
<linearGradient id="paint1_linear_855_2618" x1="22.7481" y1="52.8464" x2="36.2024" y2="60.3111" gradientUnits="userSpaceOnUse">
<stop offset="0.392" stop-color="#D4CDCC" stop-opacity="0"/>
<stop offset="0.984" stop-color="#D4CDCC"/>
</linearGradient>
<linearGradient id="paint2_linear_855_2618" x1="32.1364" y1="59.2328" x2="32.0984" y2="51.4784" gradientUnits="userSpaceOnUse">
<stop offset="0.736" stop-color="#D4CDCC" stop-opacity="0"/>
<stop offset="0.917" stop-color="#D4CDCC"/>
</linearGradient>
<radialGradient id="paint3_radial_855_2618" cx="0" cy="0" r="1" gradientUnits="userSpaceOnUse" gradientTransform="translate(26.6074 48.3244) rotate(56.9178) scale(9.65504 10.9556)">
<stop stop-color="#FFD099"/>
<stop offset="1" stop-color="#E5C9C5" stop-opacity="0"/>
</radialGradient>
<radialGradient id="paint4_radial_855_2618" cx="0" cy="0" r="1" gradientUnits="userSpaceOnUse" gradientTransform="translate(95.8528 60.6441) rotate(57.779) scale(10.4398 26.6743)">
<stop stop-color="#D1BBE0"/>
<stop offset="0.885" stop-color="#F2F0F4"/>
</radialGradient>
<linearGradient id="paint5_linear_855_2618" x1="89.0246" y1="55.0766" x2="89.1742" y2="47.9516" gradientUnits="userSpaceOnUse">
<stop offset="0.174" stop-color="#D4CDCC" stop-opacity="0"/>
<stop offset="0.644" stop-color="#D4CDCC"/>
</linearGradient>
<linearGradient id="paint6_linear_855_2618" x1="88.7277" y1="56.1904" x2="93.6274" y2="60.7172" gradientUnits="userSpaceOnUse">
<stop offset="0.174" stop-color="#D4CDCC" stop-opacity="0"/>
<stop offset="0.644" stop-color="#D4CDCC"/>
</linearGradient>
<radialGradient id="paint7_radial_855_2618" cx="0" cy="0" r="1" gradientUnits="userSpaceOnUse" gradientTransform="translate(77.0775 40.0819) rotate(128.033) scale(67.4597 63.5258)">
<stop offset="0.213" stop-color="#F2F0F4"/>
<stop offset="0.887" stop-color="#D1BBE0"/>
</radialGradient>
<radialGradient id="paint8_radial_855_2618" cx="0" cy="0" r="1" gradientUnits="userSpaceOnUse" gradientTransform="translate(64.1561 49.3124) rotate(112.86) scale(62.6639 101.515)">
<stop offset="0.78" stop-color="#CB9DEB" stop-opacity="0"/>
<stop offset="0.834" stop-color="#CB9DEB" stop-opacity="0.75"/>
</radialGradient>
<radialGradient id="paint9_radial_855_2618" cx="0" cy="0" r="1" gradientUnits="userSpaceOnUse" gradientTransform="translate(68.1621 55.547) rotate(88.694) scale(45.5822 101.256)">
<stop offset="0.768" stop-color="#CB9DEB" stop-opacity="0"/>
<stop offset="0.897" stop-color="#CB9DEB" stop-opacity="0.75"/>
</radialGradient>
<radialGradient id="paint10_radial_855_2618" cx="0" cy="0" r="1" gradientUnits="userSpaceOnUse" gradientTransform="translate(61.9354 71.8512) rotate(-97.595) scale(53.9104 57.9315)">
<stop offset="0.677" stop-color="#D4CDCC" stop-opacity="0"/>
<stop offset="0.984" stop-color="#D4CDCC"/>
</radialGradient>
<linearGradient id="paint11_linear_855_2618" x1="53.9198" y1="61.0141" x2="20.4347" y2="51.0367" gradientUnits="userSpaceOnUse">
<stop stop-color="#E5C9C5" stop-opacity="0"/>
<stop offset="1" stop-color="#FFD099"/>
</linearGradient>
<linearGradient id="paint12_linear_855_2618" x1="65.0728" y1="79.8503" x2="92.1811" y2="93.4424" gradientUnits="userSpaceOnUse">
<stop offset="0.62" stop-color="#CB9DEB" stop-opacity="0"/>
<stop offset="1" stop-color="#CB9DEB"/>
</linearGradient>
<linearGradient id="paint13_linear_855_2618" x1="62.5886" y1="77.5441" x2="63.8521" y2="101.964" gradientUnits="userSpaceOnUse">
<stop offset="0.302" stop-color="#CB9DEB" stop-opacity="0"/>
<stop offset="0.865" stop-color="#CB9DEB"/>
</linearGradient>
<radialGradient id="paint14_radial_855_2618" cx="0" cy="0" r="1" gradientUnits="userSpaceOnUse" gradientTransform="translate(35.4426 81.3513) rotate(-36.765) scale(32.4658 28.7971)">
<stop offset="0.573" stop-color="#C8B1D8" stop-opacity="0"/>
<stop offset="1" stop-color="#B9A4C8"/>
</radialGradient>
<radialGradient id="paint15_radial_855_2618" cx="0" cy="0" r="1" gradientUnits="userSpaceOnUse" gradientTransform="translate(59.9736 65.0183) rotate(-90) scale(12.4635 24.9271)">
<stop stop-color="#F70A8D"/>
<stop offset="1" stop-color="#89029C"/>
</radialGradient>
<radialGradient id="paint16_radial_855_2618" cx="0" cy="0" r="1" gradientUnits="userSpaceOnUse" gradientTransform="translate(60.8264 69.1723) rotate(-93.013) scale(16.1652 28.1019)">
<stop stop-color="#FF1C4A"/>
<stop offset="0.766" stop-color="#FF2B8F"/>
<stop offset="0.864" stop-color="#BB0773"/>
<stop offset="0.886" stop-color="#9F0762"/>
</radialGradient>
<linearGradient id="paint17_linear_855_2618" x1="52.0463" y1="46.707" x2="48.8733" y2="40.1306" gradientUnits="userSpaceOnUse">
<stop offset="0.25" stop-color="#482641"/>
<stop offset="0.406" stop-color="#503A4A"/>
<stop offset="0.511" stop-color="#482641"/>
</linearGradient>
<linearGradient id="paint18_linear_855_2618" x1="49.9325" y1="42.2848" x2="52.8728" y2="36.5159" gradientUnits="userSpaceOnUse">
<stop offset="0.25" stop-color="#482641"/>
<stop offset="0.406" stop-color="#503A4A"/>
<stop offset="0.511" stop-color="#482641"/>
</linearGradient>
<radialGradient id="paint19_radial_855_2618" cx="0" cy="0" r="1" gradientUnits="userSpaceOnUse" gradientTransform="translate(69.3098 41.178) rotate(130.344) scale(4.70051 3.84688)">
<stop stop-color="#664D5F"/>
<stop offset="0.691" stop-color="#482641"/>
<stop offset="1" stop-color="#3E2338"/>
</radialGradient>
<linearGradient id="paint20_linear_855_2618" x1="59.3919" y1="52.4048" x2="59.4869" y2="105.695" gradientUnits="userSpaceOnUse">
<stop offset="0.362" stop-color="#CB9DEB" stop-opacity="0"/>
<stop offset="1" stop-color="#CB9DEB"/>
</linearGradient>
<linearGradient id="paint21_linear_855_2618" x1="78.8905" y1="79.3349" x2="82.7499" y2="87.2009" gradientUnits="userSpaceOnUse">
<stop stop-color="white" stop-opacity="0"/>
<stop offset="1" stop-color="white"/>
</linearGradient>
</defs>
</svg>
