<svg width="305" height="246" viewBox="0 0 305 246" fill="none" xmlns="http://www.w3.org/2000/svg">
<g clip-path="url(#clip0_716_1437)">
<path d="M145.039 239.872C184.95 239.872 217.305 238.716 217.305 237.291C217.305 235.865 184.95 234.71 145.039 234.71C105.128 234.71 72.7729 235.865 72.7729 237.291C72.7729 238.716 105.128 239.872 145.039 239.872Z" fill="#3F3D56"/>
<path opacity="0.1" d="M207.904 83.9484C201.687 96.1947 177.867 99.257 169.15 99.9749C168.905 103.119 168.744 105.107 168.744 105.107C168.744 105.107 203.066 103.947 210.718 88.8736C218.371 73.8 219.067 43.8847 226.488 39.0148C227.275 38.4983 228.135 37.9687 229.044 37.4347C229.299 36.4988 229.471 35.9448 229.471 35.9448L245.008 23.1902C245.008 23.1902 231.094 29.2196 223.673 34.0896C216.252 38.9595 215.557 68.8748 207.904 83.9484Z" fill="black"/>
<path opacity="0.1" d="M167.912 60.5203C167.862 66.2299 167.121 69.6258 167.121 69.6258C167.121 69.6258 180.102 52.936 195.403 47.3668C196.307 46.7947 197.225 46.2314 198.164 45.6846C216.484 35.0171 219.731 19.9435 219.731 19.9435L230.398 7.18896L217.412 17.3926C217.412 17.3926 207.904 36.8724 192.598 42.438C182.165 46.2318 172.812 55.1962 167.912 60.5203Z" fill="black"/>
<path opacity="0.1" d="M147.873 115.774V120.876C147.873 120.876 161.787 107.658 160.859 103.252C160.15 99.8819 159.301 92.9871 155.001 87.1285C156.939 91.556 157.529 95.8746 158.045 98.3263C158.71 101.486 151.744 109.177 147.749 113.275C147.889 114.1 147.93 114.939 147.873 115.774Z" fill="black"/>
<path opacity="0.1" d="M129.208 80.7627C129.319 80.9977 129.432 81.229 129.553 81.4527C133.109 88.0569 138.47 95.0771 142.481 101.526C139.24 95.1396 133.598 87.8371 129.208 80.7627Z" fill="black"/>
<path opacity="0.1" d="M140.514 70.8898C138.644 66.3078 138.336 60.8556 140.484 54.4666C140.457 52.1512 140.591 49.8367 140.884 47.5398L144.536 31.9194C143.862 34.172 142.322 38.5177 138.797 46.6122C134.334 56.8595 136 64.8669 140.514 70.8898Z" fill="black"/>
<path opacity="0.1" d="M242.921 104.588C235.684 96.3856 223.876 93.6493 217.316 92.7421L215.356 97.2221C215.356 97.2221 235.299 97.6859 245.735 109.513C251.522 116.071 262.086 120.062 270.35 122.316L279.329 119.893C279.329 119.893 253.356 116.415 242.921 104.588Z" fill="black"/>
<path opacity="0.1" d="M101.029 101.396C110.769 97.222 97.3184 73.8 97.3184 73.8L96.9505 73.6313C100.304 80.7062 105.167 93.4914 98.2144 96.4711C91.7088 99.2592 85.6179 92.3226 82.2896 87.408C82.4104 87.7556 82.4767 87.946 82.4767 87.946C82.4767 87.946 91.289 105.571 101.029 101.396Z" fill="black"/>
<path opacity="0.1" d="M132.799 116.47C132.799 116.47 135.734 107.423 130.221 101.838C131.573 106.65 129.985 111.545 129.985 111.545C126.397 103.472 114.068 99.9795 108.668 98.8115C108.878 101.499 108.913 103.251 108.913 103.251C108.913 103.251 128.161 106.034 132.799 116.47Z" fill="black"/>
<path opacity="0.1" d="M144.536 31.9194C145.058 30.1708 145.058 29.6833 145.058 29.6833L144.536 31.9194Z" fill="black"/>
<path opacity="0.1" d="M28.7663 124.863C28.8131 124.848 28.8606 124.834 28.907 124.818C38.6469 121.572 46.9954 109.281 55.5757 105.107C64.1561 100.933 69.2579 95.3669 80.853 101.396C80.853 101.396 78.8244 93.093 74.8935 87.6378C76.1955 90.4857 77.2478 93.4412 78.0386 96.4711C66.4435 90.4417 61.3417 96.0073 52.7613 100.182C44.181 104.356 35.8325 116.647 26.0926 119.893C16.3528 123.14 0.351562 116.647 0.351562 116.647C0.351562 116.647 11.019 123.372 24.7012 124.531C26.2664 124.664 27.6019 124.781 28.7663 124.863Z" fill="black"/>
<path opacity="0.1" d="M125.449 237.467C129.698 224.442 139.917 188.422 131.871 164.473C128.397 154.131 125.177 147.536 122.454 143.328C124.49 147.311 126.716 152.58 129.057 159.548C139.029 189.232 120.94 237.467 120.94 237.467H125.449Z" fill="black"/>
<path opacity="0.1" d="M34.885 138.687C37.7281 138.976 40.4955 139.777 43.0532 141.051C52.577 145.813 59.6432 148.833 68.2472 145.326C70.2072 144.29 72.3996 143.009 74.9279 141.484C75.125 141.34 75.3202 141.202 75.5195 141.051C87.8102 131.775 104.739 119.716 121.204 126.905C121.204 126.905 117.876 123.643 114.146 120.545C99.0549 116.842 83.9417 127.646 72.7051 136.126C60.4143 145.402 52.2977 142.156 40.2388 136.126C28.1799 130.097 15.8892 136.822 15.8892 136.822C24.8492 136.553 30.6229 137.358 34.885 138.687Z" fill="black"/>
<path opacity="0.1" d="M58.4238 35.085C58.6884 35.5304 59.0089 35.9401 59.3775 36.3042C59.1067 35.863 58.7868 35.454 58.4238 35.085Z" fill="black"/>
<path opacity="0.1" d="M100.797 72.8724C101.155 73.2113 101.491 73.5734 101.802 73.9563C100.786 71.5143 99.532 69.4026 97.9826 67.9472C90.3298 60.7582 77.8071 61.222 77.8071 61.222L93.5119 68.42C96.2029 69.4239 98.6761 70.9354 100.797 72.8724Z" fill="black"/>
<path opacity="0.1" d="M117.462 41.5104C118.409 42.8774 117.877 48.6786 117.013 54.6118C115.247 66.7362 117.151 79.1516 122.763 90.043C123.502 91.5047 124.327 92.9212 125.234 94.2848C119.89 83.5588 118.099 71.4089 119.827 59.537C120.691 53.6038 121.223 47.8026 120.277 46.4356C118.19 43.4209 109.377 24.8687 108.682 19.9988C108.473 18.1095 108.424 16.2059 108.536 14.3085C106.735 9.19733 106.563 0 106.563 0C106.563 0 105.171 10.2037 105.867 15.0736C106.563 19.9435 115.375 38.4957 117.462 41.5104Z" fill="black"/>
<path opacity="0.1" d="M139.218 9.45086C139.125 8.99251 138.984 8.54526 138.797 8.11658C138.797 8.11658 138.975 8.61707 139.218 9.45086Z" fill="black"/>
<path opacity="0.1" d="M57.3092 32.8063C59.353 33.0565 61.7039 33.6836 63.4972 35.1379C63.3802 34.7423 63.2782 34.3876 63.1969 34.0895C61.1098 26.4368 49.9785 27.8282 49.9785 27.8282C55.0089 28.4731 56.3082 30.6247 57.3092 32.8063Z" fill="black"/>
<path d="M114.948 227.559C116.601 233.671 122.264 237.456 122.264 237.456C122.264 237.456 125.247 231.332 123.594 225.22C121.94 219.108 116.277 215.322 116.277 215.322C116.277 215.322 113.294 221.447 114.948 227.559Z" fill="#3F3D56"/>
<path d="M117.377 226.245C121.914 230.662 122.468 237.451 122.468 237.451C122.468 237.451 115.666 237.08 111.129 232.663C106.592 228.246 106.038 221.457 106.038 221.457C106.038 221.457 112.84 221.828 117.377 226.245Z" fill="#00BFA6"/>
<path d="M102.339 60.5261C101.945 66.8456 97.1555 71.6896 97.1555 71.6896C97.1555 71.6896 93.0055 66.2876 93.4 59.9681C93.7944 53.6486 98.5839 48.8046 98.5839 48.8046C98.5839 48.8046 102.734 54.2065 102.339 60.5261Z" fill="#00BFA6"/>
<path d="M52.4133 20.575C57.7695 23.9519 59.7232 30.4778 59.7232 30.4778C59.7232 30.4778 52.9927 31.5286 47.6365 28.1518C42.2803 24.7749 40.3267 18.249 40.3267 18.249C40.3267 18.249 47.0571 17.1981 52.4133 20.575Z" fill="#00BFA6"/>
<path d="M40.4519 97.6193C45.8081 100.996 47.7617 107.522 47.7617 107.522C47.7617 107.522 41.0312 108.573 35.6751 105.196C30.3189 101.819 28.3652 95.2933 28.3652 95.2933C28.3652 95.2933 35.0957 94.2425 40.4519 97.6193Z" fill="#00BFA6"/>
<path d="M68.948 127.171C74.3042 130.547 76.2578 137.073 76.2578 137.073C76.2578 137.073 69.5273 138.124 64.1711 134.747C58.815 131.37 56.8613 124.845 56.8613 124.845C56.8613 124.845 63.5918 123.794 68.948 127.171Z" fill="#00BFA6"/>
<path d="M149.341 31.8383C147.726 37.9606 142.086 41.7813 142.086 41.7813C142.086 41.7813 139.065 35.6757 140.681 29.5534C142.296 23.431 147.936 19.6104 147.936 19.6104C147.936 19.6104 150.957 25.716 149.341 31.8383Z" fill="#00BFA6"/>
<path d="M200.294 36.612C198.396 42.6525 192.584 46.2065 192.584 46.2065C192.584 46.2065 189.851 39.9669 191.75 33.9264C193.648 27.8859 199.46 24.3319 199.46 24.3319C199.46 24.3319 202.193 30.5715 200.294 36.612Z" fill="#00BFA6"/>
<path d="M255.367 103.84C251.928 109.157 245.379 111.034 245.379 111.034C245.379 111.034 244.407 104.292 247.846 98.9753C251.285 93.6587 257.833 91.7812 257.833 91.7812C257.833 91.7812 258.806 98.5235 255.367 103.84Z" fill="#00BFA6"/>
<mask id="mask0_716_1437" style="mask-type:luminance" maskUnits="userSpaceOnUse" x="108" y="161" width="40" height="40">
<path d="M108 175.234L133.266 161L147.501 186.266L122.234 200.501L108 175.234Z" fill="white"/>
</mask>
<g mask="url(#mask0_716_1437)">
<path d="M120.676 186.804L116.022 185.504C115.467 185.349 115.372 184.591 115.878 184.306L118.452 182.856L120.676 186.804Z" fill="url(#paint0_radial_716_1437)"/>
<path d="M120.676 186.804L116.022 185.504C115.467 185.349 115.372 184.591 115.878 184.306L118.452 182.856L120.676 186.804Z" fill="url(#paint1_linear_716_1437)" fill-opacity="0.75"/>
<path d="M120.676 186.804L116.022 185.504C115.467 185.349 115.372 184.591 115.878 184.306L118.452 182.856L120.676 186.804Z" fill="url(#paint2_linear_716_1437)" fill-opacity="0.75"/>
<path d="M120.676 186.804L116.022 185.504C115.467 185.349 115.372 184.591 115.878 184.306L118.452 182.856L120.676 186.804Z" fill="url(#paint3_radial_716_1437)"/>
<path d="M136.475 177.903L137.775 173.249C137.93 172.694 137.33 172.22 136.825 172.505L134.251 173.955L136.475 177.903Z" fill="url(#paint4_radial_716_1437)"/>
<path d="M136.475 177.903L137.775 173.249C137.93 172.694 137.33 172.22 136.825 172.505L134.251 173.955L136.475 177.903Z" fill="url(#paint5_linear_716_1437)" fill-opacity="0.75"/>
<path d="M136.475 177.903L137.775 173.249C137.93 172.694 137.33 172.22 136.825 172.505L134.251 173.955L136.475 177.903Z" fill="url(#paint6_linear_716_1437)" fill-opacity="0.75"/>
<g filter="url(#filter0_f_716_1437)">
<path d="M137.403 172.983C137.513 172.921 137.552 172.783 137.49 172.673C137.428 172.564 137.29 172.525 137.18 172.587C137.071 172.648 137.032 172.787 137.094 172.897C137.155 173.006 137.294 173.045 137.403 172.983Z" fill="white"/>
</g>
<path d="M133.174 171.938C130.453 168.416 125.463 167.464 121.475 169.711C117.487 171.958 115.724 176.714 117.318 180.871L123.372 195.2C123.741 196.178 124.861 196.743 125.86 196.336C126.728 195.982 127.144 195.709 127.711 194.295C128.19 192.662 129.917 191.689 131.561 192.126C133.206 192.562 134.932 191.589 135.412 189.956C135.891 188.324 137.618 187.351 139.262 187.787C140.141 188.02 141.029 187.853 141.749 187.406C142.744 186.783 142.977 185.434 142.275 184.529L133.174 171.938Z" fill="url(#paint7_radial_716_1437)"/>
<path d="M133.174 171.938C130.453 168.416 125.463 167.464 121.475 169.711C117.487 171.958 115.724 176.714 117.318 180.871L123.372 195.2C123.741 196.178 124.861 196.743 125.86 196.336C126.728 195.982 127.144 195.709 127.711 194.295C128.19 192.662 129.917 191.689 131.561 192.126C133.206 192.562 134.932 191.589 135.412 189.956C135.891 188.324 137.618 187.351 139.262 187.787C140.141 188.02 141.029 187.853 141.749 187.406C142.744 186.783 142.977 185.434 142.275 184.529L133.174 171.938Z" fill="url(#paint8_radial_716_1437)"/>
<path d="M133.174 171.938C130.453 168.416 125.463 167.464 121.475 169.711C117.487 171.958 115.724 176.714 117.318 180.871L123.372 195.2C123.741 196.178 124.861 196.743 125.86 196.336C126.728 195.982 127.144 195.709 127.711 194.295C128.19 192.662 129.917 191.689 131.561 192.126C133.206 192.562 134.932 191.589 135.412 189.956C135.891 188.324 137.618 187.351 139.262 187.787C140.141 188.02 141.029 187.853 141.749 187.406C142.744 186.783 142.977 185.434 142.275 184.529L133.174 171.938Z" fill="url(#paint9_radial_716_1437)"/>
<path d="M133.174 171.938C130.453 168.416 125.463 167.464 121.475 169.711C117.487 171.958 115.724 176.714 117.318 180.871L123.372 195.2C123.741 196.178 124.861 196.743 125.86 196.336C126.728 195.982 127.144 195.709 127.711 194.295C128.19 192.662 129.917 191.689 131.561 192.126C133.206 192.562 134.932 191.589 135.412 189.956C135.891 188.324 137.618 187.351 139.262 187.787C140.141 188.02 141.029 187.853 141.749 187.406C142.744 186.783 142.977 185.434 142.275 184.529L133.174 171.938Z" fill="url(#paint10_radial_716_1437)" fill-opacity="0.75"/>
<path d="M133.174 171.938C130.453 168.416 125.463 167.464 121.475 169.711C117.487 171.958 115.724 176.714 117.318 180.871L123.372 195.2C123.741 196.178 124.861 196.743 125.86 196.336C126.728 195.982 127.144 195.709 127.711 194.295C128.19 192.662 129.917 191.689 131.561 192.126C133.206 192.562 134.932 191.589 135.412 189.956C135.891 188.324 137.618 187.351 139.262 187.787C140.141 188.02 141.029 187.853 141.749 187.406C142.744 186.783 142.977 185.434 142.275 184.529L133.174 171.938Z" fill="url(#paint11_linear_716_1437)"/>
<g filter="url(#filter1_f_716_1437)">
<path d="M141.74 185.156C141.167 185.553 140.503 185.8 139.809 185.872C139.116 185.945 138.415 185.841 137.773 185.57L135.668 184.685C135.483 184.607 135.283 184.57 135.082 184.577C134.882 184.585 134.685 184.636 134.506 184.727C134.327 184.817 134.17 184.946 134.046 185.104C133.922 185.262 133.833 185.445 133.787 185.641L133.004 188.948C132.901 189.383 132.641 189.765 132.273 190.02C131.906 190.275 131.457 190.385 131.013 190.329L130.407 190.253C129.661 190.158 128.905 190.298 128.243 190.652C127.581 191.006 127.045 191.557 126.709 192.229L125.691 194.266C125.635 194.378 125.557 194.477 125.461 194.557C125.365 194.637 125.254 194.696 125.134 194.731C125.014 194.766 124.888 194.776 124.764 194.76C124.64 194.744 124.52 194.702 124.413 194.638L123.206 193.913L123.552 194.758C123.912 195.71 124.856 196.187 125.829 195.79C126.675 195.445 127.079 195.179 127.632 193.802C127.863 193.034 128.382 192.385 129.081 191.991C129.78 191.597 130.605 191.489 131.382 191.69C132.983 192.114 134.701 191.218 135.168 189.628C135.96 187.832 137.392 187.229 138.882 187.465C139.737 187.691 140.603 187.528 141.304 187.092C141.654 186.874 142.059 186.243 141.74 185.156Z" fill="url(#paint12_linear_716_1437)"/>
<path d="M141.74 185.156C141.167 185.553 140.503 185.8 139.809 185.872C139.116 185.945 138.415 185.841 137.773 185.57L135.668 184.685C135.483 184.607 135.283 184.57 135.082 184.577C134.882 184.585 134.685 184.636 134.506 184.727C134.327 184.817 134.17 184.946 134.046 185.104C133.922 185.262 133.833 185.445 133.787 185.641L133.004 188.948C132.901 189.383 132.641 189.765 132.273 190.02C131.906 190.275 131.457 190.385 131.013 190.329L130.407 190.253C129.661 190.158 128.905 190.298 128.243 190.652C127.581 191.006 127.045 191.557 126.709 192.229L125.691 194.266C125.635 194.378 125.557 194.477 125.461 194.557C125.365 194.637 125.254 194.696 125.134 194.731C125.014 194.766 124.888 194.776 124.764 194.76C124.64 194.744 124.52 194.702 124.413 194.638L123.206 193.913L123.552 194.758C123.912 195.71 124.856 196.187 125.829 195.79C126.675 195.445 127.079 195.179 127.632 193.802C127.863 193.034 128.382 192.385 129.081 191.991C129.78 191.597 130.605 191.489 131.382 191.69C132.983 192.114 134.701 191.218 135.168 189.628C135.96 187.832 137.392 187.229 138.882 187.465C139.737 187.691 140.603 187.528 141.304 187.092C141.654 186.874 142.059 186.243 141.74 185.156Z" fill="url(#paint13_linear_716_1437)"/>
</g>
<g filter="url(#filter2_f_716_1437)">
<path d="M128.994 184.953C131.595 183.488 130.185 180.014 129.899 179.318C129.664 178.757 129.235 178.648 128.83 178.639C128.426 178.631 127.421 178.976 126.059 179.744C124.696 180.511 124.384 179.182 124.176 179.536C123.967 179.889 122.27 178.959 122.522 180.467C122.812 182.189 124.654 187.398 128.994 184.953Z" fill="url(#paint14_radial_716_1437)" fill-opacity="0.75"/>
</g>
<path d="M128.187 181.545C124.233 183.772 122.004 179.818 122.004 179.818L129.913 175.362C129.913 175.362 132.14 179.318 128.187 181.545Z" fill="url(#paint15_radial_716_1437)"/>
<path d="M129.15 183.234C131.523 181.897 130.565 179.311 130.304 178.677C130.091 178.165 129.699 178.065 129.331 178.057C128.961 178.049 128.045 178.365 126.802 179.065C125.559 179.765 124.82 180.382 124.63 180.705C124.44 181.028 124.323 181.414 124.656 181.859C125.063 182.411 126.777 184.571 129.15 183.234Z" fill="url(#paint16_radial_716_1437)"/>
<g opacity="0.5" filter="url(#filter3_f_716_1437)">
<path d="M129.476 181.19C129.882 180.59 130.129 179.706 129.652 178.859" stroke="white"/>
</g>
<path d="M121.96 177.736C121.926 177.79 121.882 177.836 121.831 177.873C121.779 177.909 121.721 177.934 121.659 177.947C121.597 177.96 121.533 177.961 121.471 177.949C121.41 177.937 121.351 177.912 121.298 177.877C121.246 177.842 121.201 177.796 121.167 177.743C121.133 177.69 121.11 177.631 121.099 177.569C121.088 177.507 121.09 177.443 121.104 177.382C121.118 177.32 121.145 177.262 121.182 177.211L121.83 176.251L123.156 175.504C123.198 175.58 123.219 175.667 123.215 175.754C123.211 175.841 123.184 175.925 123.135 175.997L121.96 177.736Z" fill="url(#paint17_linear_716_1437)"/>
<path d="M120.627 175.371C120.564 175.372 120.501 175.385 120.444 175.411C120.386 175.436 120.334 175.473 120.291 175.519C120.247 175.565 120.214 175.619 120.192 175.678C120.17 175.737 120.161 175.8 120.164 175.864C120.167 175.927 120.183 175.988 120.21 176.045C120.238 176.102 120.276 176.152 120.324 176.194C120.371 176.235 120.427 176.267 120.487 176.287C120.547 176.306 120.61 176.313 120.673 176.308L121.83 176.251L123.156 175.504C123.113 175.429 123.049 175.366 122.973 175.325C122.897 175.283 122.81 175.263 122.723 175.267L120.627 175.371Z" fill="url(#paint18_linear_716_1437)"/>
<path d="M127.835 174.443C128.489 174.074 128.725 173.253 128.362 172.609C127.999 171.965 127.175 171.741 126.52 172.11C125.867 172.478 125.63 173.299 125.993 173.943C126.171 174.254 126.465 174.481 126.81 174.574C127.156 174.668 127.524 174.621 127.835 174.443Z" fill="url(#paint19_radial_716_1437)"/>
<g filter="url(#filter4_f_716_1437)">
<path d="M123.436 179.204L138.21 186.27C136.463 185.824 136.424 186.449 135.562 188.495C134.699 190.542 133.433 192.101 129.838 191.72C127.952 191.521 126.788 193.656 126.53 195.08L123.436 179.204Z" fill="url(#paint20_linear_716_1437)"/>
</g>
<g filter="url(#filter5_f_716_1437)">
<path d="M136.356 180.908L141.59 186.736" stroke="url(#paint21_linear_716_1437)" stroke-width="1.1" stroke-linecap="round"/>
</g>
</g>
<path d="M120.589 237.467C120.589 237.467 138.677 189.232 128.705 159.548C118.734 129.865 110.849 131.024 110.849 131.024C110.849 131.024 97.3987 127.546 80.7017 137.75C64.0048 147.953 59.5987 150.968 50.0907 146.794C40.5828 142.619 38.7275 136.126 15.5374 136.822C15.5374 136.822 27.8282 130.097 39.8871 136.126C51.946 142.156 60.0625 145.402 72.3533 136.126C84.6441 126.85 101.573 114.791 118.038 121.98C118.038 121.98 105.979 110.153 102.037 110.153C98.0944 110.153 79.5422 108.298 73.5128 102.037C73.5128 102.037 64.9324 96.0073 49.6269 110.849C34.3215 125.691 38.0319 125.691 24.3497 124.531C10.6675 123.372 0 116.647 0 116.647C0 116.647 16.0012 123.14 25.7411 119.893C35.4809 116.646 43.8294 104.356 52.4098 100.181C60.9901 96.0073 66.0919 90.4416 77.687 96.4711C77.687 96.4711 72.8171 76.5275 63.541 78.1508C54.265 79.7742 67.9472 73.5128 67.9472 73.5128C67.9472 73.5128 65.3962 39.6552 60.5263 37.3362C55.6564 35.0171 58.6711 28.9877 49.6269 27.8282C49.6269 27.8282 60.7582 26.4368 62.8453 34.0895C64.9324 41.7423 79.3103 83.0208 79.3103 83.0208C79.3103 83.0208 88.1226 100.645 97.8625 96.4711C107.602 92.2968 94.152 68.8748 94.152 68.8748L77.4551 61.222C77.4551 61.222 89.9778 60.7582 97.6306 67.9472C105.283 75.1361 105.747 98.3263 105.747 98.3263C105.747 98.3263 124.995 101.109 129.633 111.545C129.633 111.545 132.648 102.269 126.85 96.703C125.401 95.3116 123.879 92.8911 122.411 90.043C116.799 79.1515 114.896 66.7362 116.661 54.6118C117.525 48.6786 118.057 42.8774 117.11 41.5104C115.023 38.4957 106.211 19.9435 105.515 15.0736C104.819 10.2037 106.211 0 106.211 0C106.211 0 106.443 12.5227 109.226 16.465C112.008 20.4073 119.893 39.8871 119.893 39.8871C119.893 39.8871 119.893 64.4687 126.386 76.5275C132.88 88.5864 145.402 102.037 144.707 110.849V115.951C144.707 115.951 158.621 102.732 157.693 98.3263C156.765 93.9201 155.606 83.4846 146.794 77.2232C137.981 70.9619 132.184 60.9901 138.445 46.6122C144.707 32.2343 144.707 29.6834 144.707 29.6834L140.532 47.5398C140.532 47.5398 138.213 63.541 144.707 69.1067C151.2 74.6723 159.78 84.876 159.78 84.876L157.925 51.4822L163.954 64.7005C163.954 64.7005 176.941 48.0036 192.246 42.438C207.552 36.8724 217.06 17.3926 217.06 17.3926L230.046 7.18894L219.379 19.9435C219.379 19.9435 216.132 35.0171 197.812 45.6846C179.492 56.3521 167.665 72.1214 166.969 81.8613C166.273 91.6011 165.578 100.181 165.578 100.181C165.578 100.181 199.899 99.022 207.552 83.9484C215.205 68.8748 215.9 38.9595 223.321 34.0895C230.742 29.2196 244.656 23.1902 244.656 23.1902L229.119 35.9447C229.119 35.9447 225.872 46.3803 226.568 53.8012C227.264 61.222 221.466 68.1791 221.466 68.1791L217.06 81.1655L212.19 92.2968C212.19 92.2968 232.133 92.7606 242.569 104.588C253.005 116.415 278.978 119.893 278.978 119.893L264.368 123.835C264.368 123.835 250.454 119.197 237.235 110.617C224.017 102.037 225.408 94.3839 208.943 102.964C192.478 111.545 169.984 118.734 169.984 118.734C169.984 118.734 182.97 112.704 206.392 127.314C229.814 141.924 194.797 124.763 184.362 130.329C173.926 135.894 169.056 128.937 164.882 142.851C160.708 156.765 153.055 194.797 161.867 216.132L170.68 237.467H120.589Z" fill="#3F3D56"/>
<path d="M179.156 80.0336L176.296 81.5861C175.961 81.7693 175.896 82.2418 176.175 82.5214L178.606 84.9032L179.156 80.0336Z" fill="url(#paint22_radial_716_1437)"/>
<path d="M179.156 80.0336L176.296 81.5861C175.961 81.7693 175.896 82.2418 176.175 82.5214L178.606 84.9032L179.156 80.0336Z" fill="url(#paint23_radial_716_1437)"/>
<path d="M185.779 100.554H184.177L185.295 94.7678H183.898L182.78 100.554H181.103C180.423 100.554 179.864 101.055 179.734 101.72C179.697 101.865 179.818 102 179.957 102H186.916C187.065 102 187.177 101.865 187.149 101.72C187.018 101.055 186.459 100.554 185.779 100.554Z" fill="url(#paint24_linear_716_1437)"/>
<path d="M185.779 100.554H184.177L185.295 94.7678H183.898L182.78 100.554H181.103C180.423 100.554 179.864 101.055 179.734 101.72C179.697 101.865 179.818 102 179.957 102H186.916C187.065 102 187.177 101.865 187.149 101.72C187.018 101.055 186.459 100.554 185.779 100.554Z" fill="url(#paint25_linear_716_1437)"/>
<path d="M185.779 100.554H184.177L185.295 94.7678H183.898L182.78 100.554H181.103C180.423 100.554 179.864 101.055 179.734 101.72C179.697 101.865 179.818 102 179.957 102H186.916C187.065 102 187.177 101.865 187.149 101.72C187.018 101.055 186.459 100.554 185.779 100.554Z" fill="url(#paint26_radial_716_1437)"/>
<path d="M185.779 100.554H184.177L185.295 94.7678H183.898L182.78 100.554H181.103C180.423 100.554 179.864 101.055 179.734 101.72C179.697 101.865 179.818 102 179.957 102H186.916C187.065 102 187.177 101.865 187.149 101.72C187.018 101.055 186.459 100.554 185.779 100.554Z" fill="url(#paint27_linear_716_1437)"/>
<g filter="url(#filter6_f_716_1437)">
<path d="M180.498 101.593H184.85" stroke="url(#paint28_linear_716_1437)" stroke-opacity="0.75" stroke-width="0.25"/>
</g>
<path d="M190.492 100.554H188.834L189.952 94.7678H188.555L187.437 100.554H185.76C185.08 100.554 184.522 101.055 184.391 101.72C184.354 101.865 184.475 102 184.615 102H191.629C191.778 102 191.89 101.865 191.862 101.72C191.798 101.393 191.627 101.098 191.377 100.885C191.128 100.673 190.815 100.556 190.492 100.554Z" fill="url(#paint29_linear_716_1437)"/>
<path d="M190.492 100.554H188.834L189.952 94.7678H188.555L187.437 100.554H185.76C185.08 100.554 184.522 101.055 184.391 101.72C184.354 101.865 184.475 102 184.615 102H191.629C191.778 102 191.89 101.865 191.862 101.72C191.798 101.393 191.627 101.098 191.377 100.885C191.128 100.673 190.815 100.556 190.492 100.554Z" fill="url(#paint30_linear_716_1437)"/>
<path d="M190.492 100.554H188.834L189.952 94.7678H188.555L187.437 100.554H185.76C185.08 100.554 184.522 101.055 184.391 101.72C184.354 101.865 184.475 102 184.615 102H191.629C191.778 102 191.89 101.865 191.862 101.72C191.798 101.393 191.627 101.098 191.377 100.885C191.128 100.673 190.815 100.556 190.492 100.554Z" fill="url(#paint31_linear_716_1437)"/>
<path d="M190.492 100.554H188.834L189.952 94.7678H188.555L187.437 100.554H185.76C185.08 100.554 184.522 101.055 184.391 101.72C184.354 101.865 184.475 102 184.615 102H191.629C191.778 102 191.89 101.865 191.862 101.72C191.798 101.393 191.627 101.098 191.377 100.885C191.128 100.673 190.815 100.556 190.492 100.554Z" fill="url(#paint32_radial_716_1437)"/>
<g filter="url(#filter7_f_716_1437)">
<path d="M185.01 101.593H191.4" stroke="url(#paint33_linear_716_1437)" stroke-opacity="0.75" stroke-width="0.25"/>
</g>
<path d="M189.31 97.1785L189.44 92.1353L200.041 87.0246C200.143 86.9757 200.255 86.9541 200.368 86.9617C200.48 86.9693 200.589 87.006 200.685 87.0682C200.78 87.1305 200.859 87.2165 200.914 87.3183C200.969 87.4202 200.999 87.5346 201 87.6513V96.4746C201 96.8603 200.702 97.1688 200.329 97.1688H189.31V97.1785Z" fill="url(#paint34_linear_716_1437)"/>
<path d="M189.31 97.1785L189.44 92.1353L200.041 87.0246C200.143 86.9757 200.255 86.9541 200.368 86.9617C200.48 86.9693 200.589 87.006 200.685 87.0682C200.78 87.1305 200.859 87.2165 200.914 87.3183C200.969 87.4202 200.999 87.5346 201 87.6513V96.4746C201 96.8603 200.702 97.1688 200.329 97.1688H189.31V97.1785Z" fill="url(#paint35_linear_716_1437)"/>
<path d="M189.31 97.1785L189.44 92.1353L200.041 87.0246C200.143 86.9757 200.255 86.9541 200.368 86.9617C200.48 86.9693 200.589 87.006 200.685 87.0682C200.78 87.1305 200.859 87.2165 200.914 87.3183C200.969 87.4202 200.999 87.5346 201 87.6513V96.4746C201 96.8603 200.702 97.1688 200.329 97.1688H189.31V97.1785Z" fill="url(#paint36_linear_716_1437)"/>
<path d="M189.571 79.0693C189.449 78.6643 189.291 78.2786 189.086 77.9218H189.664C190.865 77.9218 191.834 76.9189 191.834 75.675C191.834 75.3086 191.536 75 191.182 75H184.233C181.271 75 178.849 77.3914 178.653 80.4096L177.452 91.1904C177.098 94.3821 179.501 97.1786 182.603 97.1786H195.411L189.571 79.0693Z" fill="url(#paint37_linear_716_1437)"/>
<path d="M189.571 79.0693C189.449 78.6643 189.291 78.2786 189.086 77.9218H189.664C190.865 77.9218 191.834 76.9189 191.834 75.675C191.834 75.3086 191.536 75 191.182 75H184.233C181.271 75 178.849 77.3914 178.653 80.4096L177.452 91.1904C177.098 94.3821 179.501 97.1786 182.603 97.1786H195.411L189.571 79.0693Z" fill="url(#paint38_linear_716_1437)"/>
<path d="M189.571 79.0693C189.449 78.6643 189.291 78.2786 189.086 77.9218H189.664C190.865 77.9218 191.834 76.9189 191.834 75.675C191.834 75.3086 191.536 75 191.182 75H184.233C181.271 75 178.849 77.3914 178.653 80.4096L177.452 91.1904C177.098 94.3821 179.501 97.1786 182.603 97.1786H195.411L189.571 79.0693Z" fill="url(#paint39_radial_716_1437)"/>
<path d="M189.571 79.0693C189.449 78.6643 189.291 78.2786 189.086 77.9218H189.664C190.865 77.9218 191.834 76.9189 191.834 75.675C191.834 75.3086 191.536 75 191.182 75H184.233C181.271 75 178.849 77.3914 178.653 80.4096L177.452 91.1904C177.098 94.3821 179.501 97.1786 182.603 97.1786H195.411L189.571 79.0693Z" fill="url(#paint40_linear_716_1437)"/>
<path d="M189.571 79.0693C189.449 78.6643 189.291 78.2786 189.086 77.9218H189.664C190.865 77.9218 191.834 76.9189 191.834 75.675C191.834 75.3086 191.536 75 191.182 75H184.233C181.271 75 178.849 77.3914 178.653 80.4096L177.452 91.1904C177.098 94.3821 179.501 97.1786 182.603 97.1786H195.411L189.571 79.0693Z" fill="url(#paint41_radial_716_1437)"/>
<path d="M185.481 83.6786V90.3611C185.481 92.1692 186.175 93.9033 187.41 95.1818C188.645 96.4603 190.32 97.1786 192.067 97.1786H195.411L191.061 83.6786H185.481Z" fill="url(#paint42_linear_716_1437)"/>
<path d="M182.523 81.7721C182.646 81.7721 182.765 81.7214 182.852 81.6309C182.94 81.5405 182.989 81.4179 182.989 81.29C182.989 81.1621 182.94 81.0395 182.852 80.9491C182.765 80.8587 182.646 80.8079 182.523 80.8079C182.399 80.8079 182.281 80.8587 182.194 80.9491C182.106 81.0395 182.057 81.1621 182.057 81.29C182.057 81.4179 182.106 81.5405 182.194 81.6309C182.281 81.7214 182.399 81.7721 182.523 81.7721Z" fill="url(#paint43_radial_716_1437)"/>
<path d="M182.523 81.7721C182.646 81.7721 182.765 81.7214 182.852 81.6309C182.94 81.5405 182.989 81.4179 182.989 81.29C182.989 81.1621 182.94 81.0395 182.852 80.9491C182.765 80.8587 182.646 80.8079 182.523 80.8079C182.399 80.8079 182.281 80.8587 182.194 80.9491C182.106 81.0395 182.057 81.1621 182.057 81.29C182.057 81.4179 182.106 81.5405 182.194 81.6309C182.281 81.7214 182.399 81.7721 182.523 81.7721Z" fill="url(#paint44_radial_716_1437)"/>
<path d="M182.523 81.7721C182.646 81.7721 182.765 81.7214 182.852 81.6309C182.94 81.5405 182.989 81.4179 182.989 81.29C182.989 81.1621 182.94 81.0395 182.852 80.9491C182.765 80.8587 182.646 80.8079 182.523 80.8079C182.399 80.8079 182.281 80.8587 182.194 80.9491C182.106 81.0395 182.057 81.1621 182.057 81.29C182.057 81.4179 182.106 81.5405 182.194 81.6309C182.281 81.7214 182.399 81.7721 182.523 81.7721Z" fill="url(#paint45_linear_716_1437)"/>
<g filter="url(#filter8_f_716_1437)">
<path d="M186.771 91.1682L185.202 79.0375H188.518L194.077 95.0957C194.104 95.1741 194.111 95.2583 194.097 95.3402C194.084 95.4222 194.05 95.4991 193.999 95.5634C193.948 95.6278 193.882 95.6774 193.807 95.7075C193.732 95.7376 193.651 95.747 193.571 95.735L190.708 95.2982C189.708 95.1455 188.782 94.6599 188.072 93.9148C187.362 93.1697 186.905 92.2056 186.771 91.1682Z" fill="url(#paint46_linear_716_1437)"/>
</g>
<g filter="url(#filter9_f_716_1437)">
<path d="M189.07 77.3953C189.602 77.4146 190.868 77.3442 191.268 76.1147" stroke="url(#paint47_linear_716_1437)" stroke-width="0.25"/>
</g>
<path fill-rule="evenodd" clip-rule="evenodd" d="M189.086 77.9218C189.291 78.2786 189.449 78.6643 189.571 79.0693L190.07 80.6151L186.083 77.9189H189.664L189.665 77.9218H189.086Z" fill="url(#paint48_linear_716_1437)"/>
<g filter="url(#filter10_f_716_1437)">
<path d="M200.525 87.5964V96.1844" stroke="url(#paint49_linear_716_1437)" stroke-width="0.4" stroke-linecap="round"/>
</g>
<path d="M204.369 237H201.766C201.485 237 201.241 236.805 201.167 236.536L198.833 226.734H202.5L204.809 236.45C204.883 236.719 204.663 237 204.369 237Z" fill="url(#paint50_linear_716_1437)"/>
<path d="M204.369 237H201.766C201.485 237 201.241 236.805 201.167 236.536L198.833 226.734H202.5L204.809 236.45C204.883 236.719 204.663 237 204.369 237Z" fill="url(#paint51_linear_716_1437)"/>
<path d="M204.369 237H201.766C201.485 237 201.241 236.805 201.167 236.536L198.833 226.734H202.5L204.809 236.45C204.883 236.719 204.663 237 204.369 237Z" fill="url(#paint52_linear_716_1437)"/>
<path d="M204.369 237H201.766C201.485 237 201.241 236.805 201.167 236.536L198.833 226.734H202.5L204.809 236.45C204.883 236.719 204.663 237 204.369 237Z" fill="url(#paint53_linear_716_1437)"/>
<path d="M204.369 237H201.766C201.485 237 201.241 236.805 201.167 236.536L198.833 226.734H202.5L204.809 236.45C204.883 236.719 204.663 237 204.369 237Z" fill="url(#paint54_linear_716_1437)"/>
<path d="M206.349 237H208.952C209.234 237 209.478 236.805 209.551 236.536L211.886 226.734H208.219L205.909 236.45C205.836 236.719 206.056 237 206.349 237Z" fill="url(#paint55_linear_716_1437)"/>
<path d="M206.349 237H208.952C209.234 237 209.478 236.805 209.551 236.536L211.886 226.734H208.219L205.909 236.45C205.836 236.719 206.056 237 206.349 237Z" fill="url(#paint56_linear_716_1437)"/>
<path d="M206.349 237H208.952C209.234 237 209.478 236.805 209.551 236.536L211.886 226.734H208.219L205.909 236.45C205.836 236.719 206.056 237 206.349 237Z" fill="url(#paint57_linear_716_1437)"/>
<path d="M206.349 237H208.952C209.234 237 209.478 236.805 209.551 236.536L211.886 226.734H208.219L205.909 236.45C205.836 236.719 206.056 237 206.349 237Z" fill="url(#paint58_linear_716_1437)"/>
<path d="M206.349 237H208.952C209.234 237 209.478 236.805 209.551 236.536L211.886 226.734H208.219L205.909 236.45C205.836 236.719 206.056 237 206.349 237Z" fill="url(#paint59_linear_716_1437)"/>
<path d="M211.751 204.001C211.055 203.989 210.37 204.074 209.723 204.221C208.904 204.404 208.525 205.358 208.989 206.054C208.989 206.067 209.002 206.067 209.002 206.079C209.283 206.507 209.796 206.714 210.297 206.604C210.737 206.494 211.201 206.446 211.666 206.446C215.137 206.446 217.948 209.354 217.765 212.862C217.606 215.979 215.088 218.508 211.959 218.655C210.957 218.704 210.016 218.508 209.173 218.13C209.075 218.325 208.916 218.484 208.745 218.618C208.757 219.242 208.733 219.926 208.537 220.513C209.503 220.904 210.566 221.112 211.666 221.112C216.432 221.112 220.282 217.213 220.221 212.434C220.16 207.814 216.371 204.05 211.751 204.001Z" fill="url(#paint60_radial_716_1437)"/>
<path d="M211.751 204.001C211.055 203.989 210.37 204.074 209.723 204.221C208.904 204.404 208.525 205.358 208.989 206.054C208.989 206.067 209.002 206.067 209.002 206.079C209.283 206.507 209.796 206.714 210.297 206.604C210.737 206.494 211.201 206.446 211.666 206.446C215.137 206.446 217.948 209.354 217.765 212.862C217.606 215.979 215.088 218.508 211.959 218.655C210.957 218.704 210.016 218.508 209.173 218.13C209.075 218.325 208.916 218.484 208.745 218.618C208.757 219.242 208.733 219.926 208.537 220.513C209.503 220.904 210.566 221.112 211.666 221.112C216.432 221.112 220.282 217.213 220.221 212.434C220.16 207.814 216.371 204.05 211.751 204.001Z" fill="url(#paint61_radial_716_1437)"/>
<path d="M211.751 204.001C211.055 203.989 210.37 204.074 209.723 204.221C208.904 204.404 208.525 205.358 208.989 206.054C208.989 206.067 209.002 206.067 209.002 206.079C209.283 206.507 209.796 206.714 210.297 206.604C210.737 206.494 211.201 206.446 211.666 206.446C215.137 206.446 217.948 209.354 217.765 212.862C217.606 215.979 215.088 218.508 211.959 218.655C210.957 218.704 210.016 218.508 209.173 218.13C209.075 218.325 208.916 218.484 208.745 218.618C208.757 219.242 208.733 219.926 208.537 220.513C209.503 220.904 210.566 221.112 211.666 221.112C216.432 221.112 220.282 217.213 220.221 212.434C220.16 207.814 216.371 204.05 211.751 204.001Z" fill="url(#paint62_radial_716_1437)"/>
<path d="M211.751 204.001C211.055 203.989 210.37 204.074 209.723 204.221C208.904 204.404 208.525 205.358 208.989 206.054C208.989 206.067 209.002 206.067 209.002 206.079C209.283 206.507 209.796 206.714 210.297 206.604C210.737 206.494 211.201 206.446 211.666 206.446C215.137 206.446 217.948 209.354 217.765 212.862C217.606 215.979 215.088 218.508 211.959 218.655C210.957 218.704 210.016 218.508 209.173 218.13C209.075 218.325 208.916 218.484 208.745 218.618C208.757 219.242 208.733 219.926 208.537 220.513C209.503 220.904 210.566 221.112 211.666 221.112C216.432 221.112 220.282 217.213 220.221 212.434C220.16 207.814 216.371 204.05 211.751 204.001Z" fill="url(#paint63_radial_716_1437)"/>
<path d="M209.832 213.779C208.635 213.779 207.437 214.047 206.361 214.573L200.532 217.408C200.031 217.653 199.456 217.286 199.456 216.736V215.111C199.456 213.583 198.882 212.19 197.941 211.126L192.991 205.614C192.685 205.272 192.111 205.48 192.111 205.944V208.527C192.111 208.955 191.813 209.316 191.417 209.477C189.467 210.262 187.981 212.34 187.564 214.475C187.503 214.781 187.234 215.001 186.929 215.001C186.683 215.001 186.446 215.099 186.272 215.273C186.098 215.447 186 215.683 186 215.93V216.199C186 217.375 186.422 218.512 187.19 219.404C187.957 220.296 189.019 220.883 190.182 221.058C190.583 221.118 190.913 221.44 190.913 221.845V223.055C190.913 224.279 191.329 225.467 192.094 226.424C192.859 227.38 193.926 228.047 195.121 228.315C195.49 228.397 195.777 228.708 195.777 229.085V236.548C195.777 236.792 195.985 237 196.242 237H198.992C199.248 237 199.456 236.792 199.456 236.536V229.178C199.456 228.984 199.533 228.797 199.671 228.66C199.808 228.522 199.995 228.445 200.189 228.445H208.451C208.733 228.445 209.001 228.555 209.197 228.75L212.142 231.696C212.399 231.952 212.472 232.331 212.326 232.661L210.737 236.364C210.59 236.658 210.81 237 211.14 237H213.805C213.988 237 214.159 236.89 214.22 236.719L217.3 229.52C217.618 228.811 217.777 228.041 217.777 227.271V221.723C217.777 220.68 217.571 219.646 217.172 218.683C216.773 217.719 216.188 216.843 215.45 216.105C214.712 215.368 213.836 214.783 212.873 214.383C211.909 213.984 210.876 213.779 209.832 213.779Z" fill="url(#paint64_linear_716_1437)"/>
<path d="M209.832 213.779C208.635 213.779 207.437 214.047 206.361 214.573L200.532 217.408C200.031 217.653 199.456 217.286 199.456 216.736V215.111C199.456 213.583 198.882 212.19 197.941 211.126L192.991 205.614C192.685 205.272 192.111 205.48 192.111 205.944V208.527C192.111 208.955 191.813 209.316 191.417 209.477C189.467 210.262 187.981 212.34 187.564 214.475C187.503 214.781 187.234 215.001 186.929 215.001C186.683 215.001 186.446 215.099 186.272 215.273C186.098 215.447 186 215.683 186 215.93V216.199C186 217.375 186.422 218.512 187.19 219.404C187.957 220.296 189.019 220.883 190.182 221.058C190.583 221.118 190.913 221.44 190.913 221.845V223.055C190.913 224.279 191.329 225.467 192.094 226.424C192.859 227.38 193.926 228.047 195.121 228.315C195.49 228.397 195.777 228.708 195.777 229.085V236.548C195.777 236.792 195.985 237 196.242 237H198.992C199.248 237 199.456 236.792 199.456 236.536V229.178C199.456 228.984 199.533 228.797 199.671 228.66C199.808 228.522 199.995 228.445 200.189 228.445H208.451C208.733 228.445 209.001 228.555 209.197 228.75L212.142 231.696C212.399 231.952 212.472 232.331 212.326 232.661L210.737 236.364C210.59 236.658 210.81 237 211.14 237H213.805C213.988 237 214.159 236.89 214.22 236.719L217.3 229.52C217.618 228.811 217.777 228.041 217.777 227.271V221.723C217.777 220.68 217.571 219.646 217.172 218.683C216.773 217.719 216.188 216.843 215.45 216.105C214.712 215.368 213.836 214.783 212.873 214.383C211.909 213.984 210.876 213.779 209.832 213.779Z" fill="url(#paint65_radial_716_1437)"/>
<path d="M209.832 213.779C208.635 213.779 207.437 214.047 206.361 214.573L200.532 217.408C200.031 217.653 199.456 217.286 199.456 216.736V215.111C199.456 213.583 198.882 212.19 197.941 211.126L192.991 205.614C192.685 205.272 192.111 205.48 192.111 205.944V208.527C192.111 208.955 191.813 209.316 191.417 209.477C189.467 210.262 187.981 212.34 187.564 214.475C187.503 214.781 187.234 215.001 186.929 215.001C186.683 215.001 186.446 215.099 186.272 215.273C186.098 215.447 186 215.683 186 215.93V216.199C186 217.375 186.422 218.512 187.19 219.404C187.957 220.296 189.019 220.883 190.182 221.058C190.583 221.118 190.913 221.44 190.913 221.845V223.055C190.913 224.279 191.329 225.467 192.094 226.424C192.859 227.38 193.926 228.047 195.121 228.315C195.49 228.397 195.777 228.708 195.777 229.085V236.548C195.777 236.792 195.985 237 196.242 237H198.992C199.248 237 199.456 236.792 199.456 236.536V229.178C199.456 228.984 199.533 228.797 199.671 228.66C199.808 228.522 199.995 228.445 200.189 228.445H208.451C208.733 228.445 209.001 228.555 209.197 228.75L212.142 231.696C212.399 231.952 212.472 232.331 212.326 232.661L210.737 236.364C210.59 236.658 210.81 237 211.14 237H213.805C213.988 237 214.159 236.89 214.22 236.719L217.3 229.52C217.618 228.811 217.777 228.041 217.777 227.271V221.723C217.777 220.68 217.571 219.646 217.172 218.683C216.773 217.719 216.188 216.843 215.45 216.105C214.712 215.368 213.836 214.783 212.873 214.383C211.909 213.984 210.876 213.779 209.832 213.779Z" fill="url(#paint66_linear_716_1437)"/>
<path d="M209.832 213.779C208.635 213.779 207.437 214.047 206.361 214.573L200.532 217.408C200.031 217.653 199.456 217.286 199.456 216.736V215.111C199.456 213.583 198.882 212.19 197.941 211.126L192.991 205.614C192.685 205.272 192.111 205.48 192.111 205.944V208.527C192.111 208.955 191.813 209.316 191.417 209.477C189.467 210.262 187.981 212.34 187.564 214.475C187.503 214.781 187.234 215.001 186.929 215.001C186.683 215.001 186.446 215.099 186.272 215.273C186.098 215.447 186 215.683 186 215.93V216.199C186 217.375 186.422 218.512 187.19 219.404C187.957 220.296 189.019 220.883 190.182 221.058C190.583 221.118 190.913 221.44 190.913 221.845V223.055C190.913 224.279 191.329 225.467 192.094 226.424C192.859 227.38 193.926 228.047 195.121 228.315C195.49 228.397 195.777 228.708 195.777 229.085V236.548C195.777 236.792 195.985 237 196.242 237H198.992C199.248 237 199.456 236.792 199.456 236.536V229.178C199.456 228.984 199.533 228.797 199.671 228.66C199.808 228.522 199.995 228.445 200.189 228.445H208.451C208.733 228.445 209.001 228.555 209.197 228.75L212.142 231.696C212.399 231.952 212.472 232.331 212.326 232.661L210.737 236.364C210.59 236.658 210.81 237 211.14 237H213.805C213.988 237 214.159 236.89 214.22 236.719L217.3 229.52C217.618 228.811 217.777 228.041 217.777 227.271V221.723C217.777 220.68 217.571 219.646 217.172 218.683C216.773 217.719 216.188 216.843 215.45 216.105C214.712 215.368 213.836 214.783 212.873 214.383C211.909 213.984 210.876 213.779 209.832 213.779Z" fill="url(#paint67_radial_716_1437)"/>
<path d="M209.832 213.779C208.635 213.779 207.437 214.047 206.361 214.573L200.532 217.408C200.031 217.653 199.456 217.286 199.456 216.736V215.111C199.456 213.583 198.882 212.19 197.941 211.126L192.991 205.614C192.685 205.272 192.111 205.48 192.111 205.944V208.527C192.111 208.955 191.813 209.316 191.417 209.477C189.467 210.262 187.981 212.34 187.564 214.475C187.503 214.781 187.234 215.001 186.929 215.001C186.683 215.001 186.446 215.099 186.272 215.273C186.098 215.447 186 215.683 186 215.93V216.199C186 217.375 186.422 218.512 187.19 219.404C187.957 220.296 189.019 220.883 190.182 221.058C190.583 221.118 190.913 221.44 190.913 221.845V223.055C190.913 224.279 191.329 225.467 192.094 226.424C192.859 227.38 193.926 228.047 195.121 228.315C195.49 228.397 195.777 228.708 195.777 229.085V236.548C195.777 236.792 195.985 237 196.242 237H198.992C199.248 237 199.456 236.792 199.456 236.536V229.178C199.456 228.984 199.533 228.797 199.671 228.66C199.808 228.522 199.995 228.445 200.189 228.445H208.451C208.733 228.445 209.001 228.555 209.197 228.75L212.142 231.696C212.399 231.952 212.472 232.331 212.326 232.661L210.737 236.364C210.59 236.658 210.81 237 211.14 237H213.805C213.988 237 214.159 236.89 214.22 236.719L217.3 229.52C217.618 228.811 217.777 228.041 217.777 227.271V221.723C217.777 220.68 217.571 219.646 217.172 218.683C216.773 217.719 216.188 216.843 215.45 216.105C214.712 215.368 213.836 214.783 212.873 214.383C211.909 213.984 210.876 213.779 209.832 213.779Z" fill="url(#paint68_radial_716_1437)"/>
<path fill-rule="evenodd" clip-rule="evenodd" d="M209.142 228.698L207.351 226.575C206.496 225.548 205.225 224.962 203.893 224.962H199.444V231.68H199.456V229.178C199.456 228.984 199.533 228.797 199.671 228.66C199.808 228.522 199.995 228.445 200.189 228.445H208.451C208.708 228.445 208.952 228.535 209.142 228.698Z" fill="url(#paint69_linear_716_1437)"/>
<path d="M195.777 229.085V224.888L194.219 222.215C194.061 221.884 193.812 221.605 193.502 221.41C193.191 221.215 192.832 221.111 192.465 221.112H190.384C190.535 221.167 190.667 221.266 190.761 221.397C190.856 221.528 190.909 221.684 190.913 221.845V223.055C190.912 224.279 191.329 225.468 192.094 226.424C192.859 227.38 193.926 228.047 195.121 228.315C195.49 228.397 195.777 228.708 195.777 229.085Z" fill="url(#paint70_linear_716_1437)"/>
<path d="M195.777 229.085V224.888L194.219 222.215C194.061 221.884 193.812 221.605 193.502 221.41C193.191 221.215 192.832 221.111 192.465 221.112H190.384C190.535 221.167 190.667 221.266 190.761 221.397C190.856 221.528 190.909 221.684 190.913 221.845V223.055C190.912 224.279 191.329 225.468 192.094 226.424C192.859 227.38 193.926 228.047 195.121 228.315C195.49 228.397 195.777 228.708 195.777 229.085Z" fill="url(#paint71_radial_716_1437)"/>
<path d="M199.456 215.111V216.736C198.819 217.085 197.125 218.966 194.269 220.413C193.303 220.901 192.684 221.112 190.913 221.112C189.61 221.112 188.36 220.594 187.439 219.673C186.518 218.751 186 217.502 186 216.199V215.93C186 215.416 186.416 215.001 186.929 215.001C187.234 215.001 187.503 214.781 187.564 214.475C188.029 212.092 189.825 209.782 192.111 209.257V205.944C192.111 205.48 192.685 205.272 192.991 205.614L197.941 211.126C198.882 212.19 199.456 213.583 199.456 215.111Z" fill="url(#paint72_linear_716_1437)"/>
<path d="M199.456 215.111V216.736C198.819 217.085 197.125 218.966 194.269 220.413C193.303 220.901 192.684 221.112 190.913 221.112C189.61 221.112 188.36 220.594 187.439 219.673C186.518 218.751 186 217.502 186 216.199V215.93C186 215.416 186.416 215.001 186.929 215.001C187.234 215.001 187.503 214.781 187.564 214.475C188.029 212.092 189.825 209.782 192.111 209.257V205.944C192.111 205.48 192.685 205.272 192.991 205.614L197.941 211.126C198.882 212.19 199.456 213.583 199.456 215.111Z" fill="url(#paint73_radial_716_1437)"/>
<path d="M201.888 221.16C202.56 221.16 203.11 220.61 203.11 219.938V216.15L200.666 217.335V219.938C200.666 220.61 201.216 221.16 201.888 221.16Z" fill="url(#paint74_linear_716_1437)"/>
<path d="M206.349 214.573L204.308 215.563V218.924C204.308 219.596 204.858 220.146 205.53 220.146C206.202 220.146 206.752 219.596 206.752 218.924V214.402C206.618 214.451 206.484 214.512 206.349 214.573Z" fill="url(#paint75_linear_716_1437)"/>
<path d="M209.832 213.779C209.197 213.779 208.573 213.852 207.962 213.999V217.91C207.962 218.582 208.512 219.132 209.185 219.132C209.857 219.132 210.407 218.582 210.407 217.91V213.803C210.211 213.791 210.016 213.779 209.832 213.779Z" fill="url(#paint76_linear_716_1437)"/>
<path d="M197.928 211.126L197.024 210.112H195.777C195.105 210.112 194.555 210.662 194.555 211.334C194.555 212.006 195.105 212.556 195.777 212.556H198.869C198.625 212.031 198.307 211.554 197.928 211.126ZM199.444 215.111C199.444 214.646 199.395 214.206 199.297 213.779H197.611C196.938 213.779 196.388 214.329 196.388 215.001C196.388 215.673 196.938 216.223 197.611 216.223H199.444V215.111Z" fill="#C78565"/>
<path d="M188.041 215.563C188.212 215.331 188.053 215.001 187.76 215.001H186.929C186.683 215.001 186.446 215.099 186.272 215.273C186.098 215.447 186 215.683 186 215.93V216.198C186 216.638 186.06 217.066 186.169 217.47C186.219 217.657 186.458 217.692 186.574 217.537L188.041 215.563Z" fill="url(#paint77_radial_716_1437)"/>
<path d="M188.041 215.563C188.212 215.331 188.053 215.001 187.76 215.001H186.929C186.683 215.001 186.446 215.099 186.272 215.273C186.098 215.447 186 215.683 186 215.93V216.198C186 216.638 186.06 217.066 186.169 217.47C186.219 217.657 186.458 217.692 186.574 217.537L188.041 215.563Z" fill="url(#paint78_linear_716_1437)"/>
<g filter="url(#filter11_f_716_1437)">
<path d="M202.359 229.523L203.874 235.62" stroke="url(#paint79_linear_716_1437)" stroke-width="0.2"/>
</g>
<g filter="url(#filter12_f_716_1437)">
<path d="M198.452 227.65V235.88" stroke="url(#paint80_linear_716_1437)" stroke-width="0.2"/>
</g>
<g filter="url(#filter13_f_716_1437)">
<path d="M208.69 229.751L207.238 235.976" stroke="url(#paint81_linear_716_1437)" stroke-opacity="0.5" stroke-width="0.2"/>
</g>
<g filter="url(#filter14_f_716_1437)">
<path d="M209.164 215.715C210.405 215.58 211.95 215.766 213.518 216.669C215.276 217.682 215.905 219.458 215.905 220.851V228.148" stroke="url(#paint82_linear_716_1437)" stroke-linecap="round"/>
</g>
<g filter="url(#filter15_f_716_1437)">
<path d="M215.715 227.994V229.446L213.232 235.442" stroke="url(#paint83_linear_716_1437)" stroke-width="0.5" stroke-linecap="round"/>
</g>
<g filter="url(#filter16_f_716_1437)">
<path d="M195.96 213.284L192.875 206.147L197.773 212.327C198.287 212.975 198.567 213.778 198.567 214.605V218.083C198.567 218.402 198.44 218.709 198.214 218.934C197.988 219.16 197.682 219.287 197.363 219.287C197.044 219.287 196.737 219.16 196.512 218.934C196.286 218.709 196.159 218.402 196.159 218.083V214.254C196.16 213.92 196.092 213.59 195.96 213.284Z" fill="url(#paint84_linear_716_1437)" fill-opacity="0.75"/>
</g>
<g filter="url(#filter17_f_716_1437)">
<path d="M191.258 213.766H191.257C190.93 213.766 190.665 214.031 190.665 214.358V215.639C190.665 215.965 190.93 216.23 191.257 216.23H191.258C191.584 216.23 191.849 215.965 191.849 215.639V214.358C191.849 214.031 191.584 213.766 191.258 213.766Z" fill="#D58E49"/>
</g>
<path d="M191.506 213.766H191.505C191.178 213.766 190.913 214.031 190.913 214.358V215.639C190.913 215.965 191.178 216.23 191.505 216.23H191.506C191.833 216.23 192.097 215.965 192.097 215.639V214.358C192.097 214.031 191.833 213.766 191.506 213.766Z" fill="url(#paint85_linear_716_1437)"/>
<path d="M191.506 213.766H191.505C191.178 213.766 190.913 214.031 190.913 214.358V215.639C190.913 215.965 191.178 216.23 191.505 216.23H191.506C191.833 216.23 192.097 215.965 192.097 215.639V214.358C192.097 214.031 191.833 213.766 191.506 213.766Z" fill="url(#paint86_linear_716_1437)"/>
<g filter="url(#filter18_f_716_1437)">
<path d="M210.406 205.04C211.755 204.798 215.257 205.04 217.243 207.026C220.129 209.913 219.496 215.008 217.243 217.567" stroke="url(#paint87_linear_716_1437)" stroke-width="0.3" stroke-linecap="round"/>
</g>
</g>
<defs>
<filter id="filter0_f_716_1437" x="136.314" y="171.807" width="1.95459" height="1.95508" filterUnits="userSpaceOnUse" color-interpolation-filters="sRGB">
<feFlood flood-opacity="0" result="BackgroundImageFix"/>
<feBlend mode="normal" in="SourceGraphic" in2="BackgroundImageFix" result="shape"/>
<feGaussianBlur stdDeviation="0.375" result="effect1_foregroundBlur_716_1437"/>
</filter>
<filter id="filter1_f_716_1437" x="122.206" y="183.577" width="20.6494" height="13.3538" filterUnits="userSpaceOnUse" color-interpolation-filters="sRGB">
<feFlood flood-opacity="0" result="BackgroundImageFix"/>
<feBlend mode="normal" in="SourceGraphic" in2="BackgroundImageFix" result="shape"/>
<feGaussianBlur stdDeviation="0.5" result="effect1_foregroundBlur_716_1437"/>
</filter>
<filter id="filter2_f_716_1437" x="120.997" y="177.139" width="11.04" height="9.95581" filterUnits="userSpaceOnUse" color-interpolation-filters="sRGB">
<feFlood flood-opacity="0" result="BackgroundImageFix"/>
<feBlend mode="normal" in="SourceGraphic" in2="BackgroundImageFix" result="shape"/>
<feGaussianBlur stdDeviation="0.75" result="effect1_foregroundBlur_716_1437"/>
</filter>
<filter id="filter3_f_716_1437" x="128.062" y="177.613" width="3.35205" height="4.85718" filterUnits="userSpaceOnUse" color-interpolation-filters="sRGB">
<feFlood flood-opacity="0" result="BackgroundImageFix"/>
<feBlend mode="normal" in="SourceGraphic" in2="BackgroundImageFix" result="shape"/>
<feGaussianBlur stdDeviation="0.5" result="effect1_foregroundBlur_716_1437"/>
</filter>
<filter id="filter4_f_716_1437" x="121.437" y="177.204" width="18.7739" height="19.8759" filterUnits="userSpaceOnUse" color-interpolation-filters="sRGB">
<feFlood flood-opacity="0" result="BackgroundImageFix"/>
<feBlend mode="normal" in="SourceGraphic" in2="BackgroundImageFix" result="shape"/>
<feGaussianBlur stdDeviation="1" result="effect1_foregroundBlur_716_1437"/>
</filter>
<filter id="filter5_f_716_1437" x="133.307" y="177.858" width="11.3335" height="11.9276" filterUnits="userSpaceOnUse" color-interpolation-filters="sRGB">
<feFlood flood-opacity="0" result="BackgroundImageFix"/>
<feBlend mode="normal" in="SourceGraphic" in2="BackgroundImageFix" result="shape"/>
<feGaussianBlur stdDeviation="1.25" result="effect1_foregroundBlur_716_1437"/>
</filter>
<filter id="filter6_f_716_1437" x="180.248" y="101.218" width="4.85205" height="0.75" filterUnits="userSpaceOnUse" color-interpolation-filters="sRGB">
<feFlood flood-opacity="0" result="BackgroundImageFix"/>
<feBlend mode="normal" in="SourceGraphic" in2="BackgroundImageFix" result="shape"/>
<feGaussianBlur stdDeviation="0.125" result="effect1_foregroundBlur_716_1437"/>
</filter>
<filter id="filter7_f_716_1437" x="184.76" y="101.218" width="6.89014" height="0.75" filterUnits="userSpaceOnUse" color-interpolation-filters="sRGB">
<feFlood flood-opacity="0" result="BackgroundImageFix"/>
<feBlend mode="normal" in="SourceGraphic" in2="BackgroundImageFix" result="shape"/>
<feGaussianBlur stdDeviation="0.125" result="effect1_foregroundBlur_716_1437"/>
</filter>
<filter id="filter8_f_716_1437" x="183.202" y="77.0375" width="12.9023" height="20.7026" filterUnits="userSpaceOnUse" color-interpolation-filters="sRGB">
<feFlood flood-opacity="0" result="BackgroundImageFix"/>
<feBlend mode="normal" in="SourceGraphic" in2="BackgroundImageFix" result="shape"/>
<feGaussianBlur stdDeviation="1" result="effect1_foregroundBlur_716_1437"/>
</filter>
<filter id="filter9_f_716_1437" x="188.565" y="75.576" width="3.32178" height="2.44666" filterUnits="userSpaceOnUse" color-interpolation-filters="sRGB">
<feFlood flood-opacity="0" result="BackgroundImageFix"/>
<feBlend mode="normal" in="SourceGraphic" in2="BackgroundImageFix" result="shape"/>
<feGaussianBlur stdDeviation="0.25" result="effect1_foregroundBlur_716_1437"/>
</filter>
<filter id="filter10_f_716_1437" x="199.925" y="86.9965" width="1.20039" height="9.78792" filterUnits="userSpaceOnUse" color-interpolation-filters="sRGB">
<feFlood flood-opacity="0" result="BackgroundImageFix"/>
<feBlend mode="normal" in="SourceGraphic" in2="BackgroundImageFix" result="shape"/>
<feGaussianBlur stdDeviation="0.2" result="effect1_foregroundBlur_716_1437"/>
</filter>
<filter id="filter11_f_716_1437" x="201.562" y="228.799" width="3.10996" height="7.54575" filterUnits="userSpaceOnUse" color-interpolation-filters="sRGB">
<feFlood flood-opacity="0" result="BackgroundImageFix"/>
<feBlend mode="normal" in="SourceGraphic" in2="BackgroundImageFix" result="shape"/>
<feGaussianBlur stdDeviation="0.35" result="effect1_foregroundBlur_716_1437"/>
</filter>
<filter id="filter12_f_716_1437" x="197.652" y="226.95" width="1.6002" height="9.6301" filterUnits="userSpaceOnUse" color-interpolation-filters="sRGB">
<feFlood flood-opacity="0" result="BackgroundImageFix"/>
<feBlend mode="normal" in="SourceGraphic" in2="BackgroundImageFix" result="shape"/>
<feGaussianBlur stdDeviation="0.35" result="effect1_foregroundBlur_716_1437"/>
</filter>
<filter id="filter13_f_716_1437" x="206.441" y="229.029" width="3.04648" height="7.67002" filterUnits="userSpaceOnUse" color-interpolation-filters="sRGB">
<feFlood flood-opacity="0" result="BackgroundImageFix"/>
<feBlend mode="normal" in="SourceGraphic" in2="BackgroundImageFix" result="shape"/>
<feGaussianBlur stdDeviation="0.35" result="effect1_foregroundBlur_716_1437"/>
</filter>
<filter id="filter14_f_716_1437" x="205.664" y="212.175" width="13.7417" height="19.4724" filterUnits="userSpaceOnUse" color-interpolation-filters="sRGB">
<feFlood flood-opacity="0" result="BackgroundImageFix"/>
<feBlend mode="normal" in="SourceGraphic" in2="BackgroundImageFix" result="shape"/>
<feGaussianBlur stdDeviation="1.5" result="effect1_foregroundBlur_716_1437"/>
</filter>
<filter id="filter15_f_716_1437" x="210.982" y="225.744" width="6.98242" height="11.948" filterUnits="userSpaceOnUse" color-interpolation-filters="sRGB">
<feFlood flood-opacity="0" result="BackgroundImageFix"/>
<feBlend mode="normal" in="SourceGraphic" in2="BackgroundImageFix" result="shape"/>
<feGaussianBlur stdDeviation="1" result="effect1_foregroundBlur_716_1437"/>
</filter>
<filter id="filter16_f_716_1437" x="191.875" y="205.147" width="7.69189" height="15.1396" filterUnits="userSpaceOnUse" color-interpolation-filters="sRGB">
<feFlood flood-opacity="0" result="BackgroundImageFix"/>
<feBlend mode="normal" in="SourceGraphic" in2="BackgroundImageFix" result="shape"/>
<feGaussianBlur stdDeviation="0.5" result="effect1_foregroundBlur_716_1437"/>
</filter>
<filter id="filter17_f_716_1437" x="190.165" y="213.266" width="2.18408" height="3.46387" filterUnits="userSpaceOnUse" color-interpolation-filters="sRGB">
<feFlood flood-opacity="0" result="BackgroundImageFix"/>
<feBlend mode="normal" in="SourceGraphic" in2="BackgroundImageFix" result="shape"/>
<feGaussianBlur stdDeviation="0.25" result="effect1_foregroundBlur_716_1437"/>
</filter>
<filter id="filter18_f_716_1437" x="209.656" y="204.213" width="10.2718" height="14.1044" filterUnits="userSpaceOnUse" color-interpolation-filters="sRGB">
<feFlood flood-opacity="0" result="BackgroundImageFix"/>
<feBlend mode="normal" in="SourceGraphic" in2="BackgroundImageFix" result="shape"/>
<feGaussianBlur stdDeviation="0.3" result="effect1_foregroundBlur_716_1437"/>
</filter>
<radialGradient id="paint0_radial_716_1437" cx="0" cy="0" r="1" gradientUnits="userSpaceOnUse" gradientTransform="translate(119.683 181.774) rotate(74.555) scale(6.6533 8.04786)">
<stop offset="0.213" stop-color="#F2F0F4"/>
<stop offset="0.887" stop-color="#D1BBE0"/>
</radialGradient>
<linearGradient id="paint1_linear_716_1437" x1="114.026" y1="185.349" x2="119.897" y2="185.311" gradientUnits="userSpaceOnUse">
<stop offset="0.392" stop-color="#D4CDCC" stop-opacity="0"/>
<stop offset="0.984" stop-color="#D4CDCC"/>
</linearGradient>
<linearGradient id="paint2_linear_716_1437" x1="118.344" y1="185.714" x2="116.879" y2="183.143" gradientUnits="userSpaceOnUse">
<stop offset="0.736" stop-color="#D4CDCC" stop-opacity="0"/>
<stop offset="0.917" stop-color="#D4CDCC"/>
</linearGradient>
<radialGradient id="paint3_radial_716_1437" cx="0" cy="0" r="1" gradientUnits="userSpaceOnUse" gradientTransform="translate(114.462 183.123) rotate(27.5217) scale(3.68416 4.18044)">
<stop stop-color="#FFD099"/>
<stop offset="1" stop-color="#E5C9C5" stop-opacity="0"/>
</radialGradient>
<radialGradient id="paint4_radial_716_1437" cx="0" cy="0" r="1" gradientUnits="userSpaceOnUse" gradientTransform="translate(139.79 174.249) rotate(28.3829) scale(3.98361 10.1784)">
<stop stop-color="#D1BBE0"/>
<stop offset="0.885" stop-color="#F2F0F4"/>
</radialGradient>
<linearGradient id="paint5_linear_716_1437" x1="136.478" y1="173.677" x2="135.193" y2="171.281" gradientUnits="userSpaceOnUse">
<stop offset="0.174" stop-color="#D4CDCC" stop-opacity="0"/>
<stop offset="0.644" stop-color="#D4CDCC"/>
</linearGradient>
<linearGradient id="paint6_linear_716_1437" x1="136.587" y1="174.103" x2="139.064" y2="174.691" gradientUnits="userSpaceOnUse">
<stop offset="0.174" stop-color="#D4CDCC" stop-opacity="0"/>
<stop offset="0.644" stop-color="#D4CDCC"/>
</linearGradient>
<radialGradient id="paint7_radial_716_1437" cx="0" cy="0" r="1" gradientUnits="userSpaceOnUse" gradientTransform="translate(129.697 170.93) rotate(98.637) scale(25.7412 24.2401)">
<stop offset="0.213" stop-color="#F2F0F4"/>
<stop offset="0.887" stop-color="#D1BBE0"/>
</radialGradient>
<radialGradient id="paint8_radial_716_1437" cx="0" cy="0" r="1" gradientUnits="userSpaceOnUse" gradientTransform="translate(127.131 176.419) rotate(83.464) scale(23.9112 38.7361)">
<stop offset="0.78" stop-color="#CB9DEB" stop-opacity="0"/>
<stop offset="0.834" stop-color="#CB9DEB" stop-opacity="0.75"/>
</radialGradient>
<radialGradient id="paint9_radial_716_1437" cx="0" cy="0" r="1" gradientUnits="userSpaceOnUse" gradientTransform="translate(129.63 177.741) rotate(59.2979) scale(17.3932 38.6371)">
<stop offset="0.768" stop-color="#CB9DEB" stop-opacity="0"/>
<stop offset="0.897" stop-color="#CB9DEB" stop-opacity="0.75"/>
</radialGradient>
<radialGradient id="paint10_radial_716_1437" cx="0" cy="0" r="1" gradientUnits="userSpaceOnUse" gradientTransform="translate(130.614 184.328) rotate(-126.991) scale(20.5711 22.1054)">
<stop offset="0.677" stop-color="#D4CDCC" stop-opacity="0"/>
<stop offset="0.984" stop-color="#D4CDCC"/>
</radialGradient>
<linearGradient id="paint11_linear_716_1437" x1="125.919" y1="182.226" x2="112.918" y2="185.181" gradientUnits="userSpaceOnUse">
<stop stop-color="#E5C9C5" stop-opacity="0"/>
<stop offset="1" stop-color="#FFD099"/>
</linearGradient>
<linearGradient id="paint12_linear_716_1437" x1="133.155" y1="186.399" x2="144.713" y2="185.841" gradientUnits="userSpaceOnUse">
<stop offset="0.62" stop-color="#CB9DEB" stop-opacity="0"/>
<stop offset="1" stop-color="#CB9DEB"/>
</linearGradient>
<linearGradient id="paint13_linear_716_1437" x1="131.897" y1="186.098" x2="136.891" y2="193.98" gradientUnits="userSpaceOnUse">
<stop offset="0.302" stop-color="#CB9DEB" stop-opacity="0"/>
<stop offset="0.865" stop-color="#CB9DEB"/>
</linearGradient>
<radialGradient id="paint14_radial_716_1437" cx="0" cy="0" r="1" gradientUnits="userSpaceOnUse" gradientTransform="translate(123.585 192.448) rotate(-66.161) scale(12.3883 10.9884)">
<stop offset="0.573" stop-color="#C8B1D8" stop-opacity="0"/>
<stop offset="1" stop-color="#B9A4C8"/>
</radialGradient>
<radialGradient id="paint15_radial_716_1437" cx="0" cy="0" r="1" gradientUnits="userSpaceOnUse" gradientTransform="translate(128.682 182.424) rotate(-119.396) scale(4.75582 9.51164)">
<stop stop-color="#F70A8D"/>
<stop offset="1" stop-color="#89029C"/>
</radialGradient>
<radialGradient id="paint16_radial_716_1437" cx="0" cy="0" r="1" gradientUnits="userSpaceOnUse" gradientTransform="translate(129.743 183.645) rotate(-122.409) scale(6.16829 10.7231)">
<stop stop-color="#FF1C4A"/>
<stop offset="0.766" stop-color="#FF2B8F"/>
<stop offset="0.864" stop-color="#BB0773"/>
<stop offset="0.886" stop-color="#9F0762"/>
</radialGradient>
<linearGradient id="paint17_linear_716_1437" x1="122.617" y1="177.821" x2="120.33" y2="176.229" gradientUnits="userSpaceOnUse">
<stop offset="0.25" stop-color="#482641"/>
<stop offset="0.406" stop-color="#503A4A"/>
<stop offset="0.511" stop-color="#482641"/>
</linearGradient>
<linearGradient id="paint18_linear_716_1437" x1="121.085" y1="176.747" x2="120.982" y2="174.278" gradientUnits="userSpaceOnUse">
<stop offset="0.25" stop-color="#482641"/>
<stop offset="0.406" stop-color="#503A4A"/>
<stop offset="0.511" stop-color="#482641"/>
</linearGradient>
<radialGradient id="paint19_radial_716_1437" cx="0" cy="0" r="1" gradientUnits="userSpaceOnUse" gradientTransform="translate(127.32 172.749) rotate(100.948) scale(1.79361 1.46789)">
<stop stop-color="#664D5F"/>
<stop offset="0.691" stop-color="#482641"/>
<stop offset="1" stop-color="#3E2338"/>
</radialGradient>
<linearGradient id="paint20_linear_716_1437" x1="126.126" y1="178.339" x2="136.138" y2="196.038" gradientUnits="userSpaceOnUse">
<stop offset="0.362" stop-color="#CB9DEB" stop-opacity="0"/>
<stop offset="1" stop-color="#CB9DEB"/>
</linearGradient>
<linearGradient id="paint21_linear_716_1437" x1="137.652" y1="183.64" x2="140.408" y2="185.532" gradientUnits="userSpaceOnUse">
<stop stop-color="white" stop-opacity="0"/>
<stop offset="1" stop-color="white"/>
</linearGradient>
<radialGradient id="paint22_radial_716_1437" cx="0" cy="0" r="1" gradientUnits="userSpaceOnUse" gradientTransform="translate(176.641 82.2022) scale(6.75344 4.30915)">
<stop stop-color="#EDB134"/>
<stop offset="1" stop-color="#BE8244"/>
</radialGradient>
<radialGradient id="paint23_radial_716_1437" cx="0" cy="0" r="1" gradientUnits="userSpaceOnUse" gradientTransform="translate(176.874 82.1415) rotate(-12.3753) scale(2.74179 2.03739)">
<stop stop-color="#FFD150"/>
<stop offset="1" stop-color="#FFD150" stop-opacity="0"/>
</radialGradient>
<linearGradient id="paint24_linear_716_1437" x1="184.41" y1="96.168" x2="183.211" y2="102.62" gradientUnits="userSpaceOnUse">
<stop stop-color="#D69946"/>
<stop offset="1" stop-color="#E99D23"/>
</linearGradient>
<linearGradient id="paint25_linear_716_1437" x1="184.006" y1="96.6665" x2="183.401" y2="99.9137" gradientUnits="userSpaceOnUse">
<stop stop-color="#B87E33"/>
<stop offset="1" stop-color="#B87E33" stop-opacity="0"/>
</linearGradient>
<radialGradient id="paint26_radial_716_1437" cx="0" cy="0" r="1" gradientUnits="userSpaceOnUse" gradientTransform="translate(185.141 102) rotate(180) scale(2.00857 2.45569)">
<stop stop-color="#C67500"/>
<stop offset="1" stop-color="#C67500" stop-opacity="0"/>
</radialGradient>
<linearGradient id="paint27_linear_716_1437" x1="183.44" y1="102.693" x2="183.44" y2="101.216" gradientUnits="userSpaceOnUse">
<stop stop-color="#F15CC7"/>
<stop offset="0.828" stop-color="#F15CC7" stop-opacity="0"/>
</linearGradient>
<linearGradient id="paint28_linear_716_1437" x1="-nan" y1="-nan" x2="-nan" y2="-nan" gradientUnits="userSpaceOnUse">
<stop stop-color="#FDB65D"/>
<stop offset="1" stop-color="#FDB65D" stop-opacity="0"/>
</linearGradient>
<linearGradient id="paint29_linear_716_1437" x1="189.103" y1="96.168" x2="188.072" y2="101.251" gradientUnits="userSpaceOnUse">
<stop stop-color="#D69946"/>
<stop offset="1" stop-color="#E99D23"/>
</linearGradient>
<linearGradient id="paint30_linear_716_1437" x1="188.696" y1="96.6665" x2="188.095" y2="99.9147" gradientUnits="userSpaceOnUse">
<stop stop-color="#B87E33"/>
<stop offset="1" stop-color="#B87E33" stop-opacity="0"/>
</linearGradient>
<linearGradient id="paint31_linear_716_1437" x1="188.126" y1="102.693" x2="188.126" y2="101.216" gradientUnits="userSpaceOnUse">
<stop stop-color="#F15CC7"/>
<stop offset="0.828" stop-color="#F15CC7" stop-opacity="0"/>
</linearGradient>
<radialGradient id="paint32_radial_716_1437" cx="0" cy="0" r="1" gradientUnits="userSpaceOnUse" gradientTransform="translate(191.866 101.548) rotate(-172.689) scale(1.89439 1.23839)">
<stop stop-color="#FFBD59"/>
<stop offset="1" stop-color="#FFBD59" stop-opacity="0"/>
</radialGradient>
<linearGradient id="paint33_linear_716_1437" x1="-nan" y1="-nan" x2="-nan" y2="-nan" gradientUnits="userSpaceOnUse">
<stop stop-color="#FDB65D"/>
<stop offset="1" stop-color="#FDB65D" stop-opacity="0"/>
</linearGradient>
<linearGradient id="paint34_linear_716_1437" x1="189.31" y1="93.4535" x2="199.696" y2="93.4535" gradientUnits="userSpaceOnUse">
<stop stop-color="#ED1C26"/>
<stop offset="1" stop-color="#EC098C"/>
</linearGradient>
<linearGradient id="paint35_linear_716_1437" x1="192.097" y1="99.9508" x2="192.097" y2="95.7321" gradientUnits="userSpaceOnUse">
<stop offset="0.271" stop-color="#992E9B"/>
<stop offset="1" stop-color="#9F31A1" stop-opacity="0"/>
</linearGradient>
<linearGradient id="paint36_linear_716_1437" x1="188.751" y1="85.5473" x2="191.77" y2="91.9902" gradientUnits="userSpaceOnUse">
<stop stop-color="#992E9B"/>
<stop offset="1" stop-color="#9F31A1" stop-opacity="0"/>
</linearGradient>
<linearGradient id="paint37_linear_716_1437" x1="182.961" y1="70.248" x2="182.961" y2="101.397" gradientUnits="userSpaceOnUse">
<stop stop-color="#ED1C26"/>
<stop offset="1" stop-color="#EC098C"/>
</linearGradient>
<linearGradient id="paint38_linear_716_1437" x1="181.706" y1="98.3241" x2="181.706" y2="90.1875" gradientUnits="userSpaceOnUse">
<stop stop-color="#992E9B"/>
<stop offset="1" stop-color="#9F31A1" stop-opacity="0"/>
</linearGradient>
<radialGradient id="paint39_radial_716_1437" cx="0" cy="0" r="1" gradientUnits="userSpaceOnUse" gradientTransform="translate(189.332 92.4781) rotate(131.884) scale(4.37131 5.99246)">
<stop offset="0.525" stop-color="#BA2159"/>
<stop offset="1" stop-color="#BA2159" stop-opacity="0"/>
</radialGradient>
<linearGradient id="paint40_linear_716_1437" x1="176.583" y1="88.4402" x2="181.415" y2="88.4402" gradientUnits="userSpaceOnUse">
<stop stop-color="#B2516B"/>
<stop offset="1" stop-color="#B2516B" stop-opacity="0"/>
</linearGradient>
<radialGradient id="paint41_radial_716_1437" cx="0" cy="0" r="1" gradientUnits="userSpaceOnUse" gradientTransform="translate(195.411 97.1786) rotate(-123.112) scale(26.1547 17.665)">
<stop offset="0.904" stop-color="#B2516B" stop-opacity="0"/>
<stop offset="1" stop-color="#B2516B"/>
</radialGradient>
<linearGradient id="paint42_linear_716_1437" x1="190.446" y1="94.4063" x2="186.361" y2="83.0769" gradientUnits="userSpaceOnUse">
<stop stop-color="#EC098C"/>
<stop offset="1" stop-color="#ED1746"/>
</linearGradient>
<radialGradient id="paint43_radial_716_1437" cx="0" cy="0" r="1" gradientUnits="userSpaceOnUse" gradientTransform="translate(182.661 81.1348) rotate(124.902) scale(0.661374 0.582966)">
<stop offset="0.006" stop-color="#433437"/>
<stop offset="1" stop-color="#3B2838"/>
</radialGradient>
<radialGradient id="paint44_radial_716_1437" cx="0" cy="0" r="1" gradientUnits="userSpaceOnUse" gradientTransform="translate(182.696 81.1702) rotate(136.655) scale(0.340239 0.300107)">
<stop stop-color="#5C5051"/>
<stop offset="1" stop-color="#5C5051" stop-opacity="0"/>
</radialGradient>
<linearGradient id="paint45_linear_716_1437" x1="182.431" y1="80.912" x2="182.105" y2="80.711" gradientUnits="userSpaceOnUse">
<stop stop-color="#5C5051" stop-opacity="0"/>
<stop offset="1" stop-color="#5C5051"/>
</linearGradient>
<linearGradient id="paint46_linear_716_1437" x1="191.545" y1="93.2009" x2="187.72" y2="75.5961" gradientUnits="userSpaceOnUse">
<stop stop-color="#FF589B"/>
<stop offset="1" stop-color="#FF589B" stop-opacity="0"/>
</linearGradient>
<linearGradient id="paint47_linear_716_1437" x1="191.268" y1="76.73" x2="189.326" y2="78.2008" gradientUnits="userSpaceOnUse">
<stop stop-color="#FFB3D1"/>
<stop offset="1" stop-color="#FFB3D1" stop-opacity="0"/>
</linearGradient>
<linearGradient id="paint48_linear_716_1437" x1="189.245" y1="77.9189" x2="188.587" y2="79.0032" gradientUnits="userSpaceOnUse">
<stop stop-color="#A92E39"/>
<stop offset="1" stop-color="#A92E39" stop-opacity="0"/>
</linearGradient>
<linearGradient id="paint49_linear_716_1437" x1="-nan" y1="-nan" x2="-nan" y2="-nan" gradientUnits="userSpaceOnUse">
<stop stop-color="#FF5CAB"/>
<stop offset="1" stop-color="#FF5CAB" stop-opacity="0"/>
</linearGradient>
<linearGradient id="paint50_linear_716_1437" x1="200.793" y1="233.122" x2="199.88" y2="225.097" gradientUnits="userSpaceOnUse">
<stop stop-color="#EC9771"/>
<stop offset="0.754" stop-color="#CF6247"/>
</linearGradient>
<linearGradient id="paint51_linear_716_1437" x1="200.709" y1="226.734" x2="201.198" y2="230.153" gradientUnits="userSpaceOnUse">
<stop stop-color="#CF6144"/>
<stop offset="1" stop-color="#BC5035" stop-opacity="0"/>
</linearGradient>
<linearGradient id="paint52_linear_716_1437" x1="204.192" y1="229.628" x2="202.909" y2="229.92" gradientUnits="userSpaceOnUse">
<stop stop-color="#CF6144"/>
<stop offset="1" stop-color="#BC5035" stop-opacity="0"/>
</linearGradient>
<linearGradient id="paint53_linear_716_1437" x1="198.833" y1="230.52" x2="200.202" y2="230.372" gradientUnits="userSpaceOnUse">
<stop stop-color="#CF6144"/>
<stop offset="1" stop-color="#BC5035" stop-opacity="0"/>
</linearGradient>
<linearGradient id="paint54_linear_716_1437" x1="201.829" y1="237.614" x2="201.829" y2="235.581" gradientUnits="userSpaceOnUse">
<stop stop-color="#EF74E3"/>
<stop offset="1" stop-color="#EB8D98" stop-opacity="0"/>
</linearGradient>
<linearGradient id="paint55_linear_716_1437" x1="207.856" y1="233.122" x2="206.942" y2="225.097" gradientUnits="userSpaceOnUse">
<stop stop-color="#EC9771"/>
<stop offset="0.754" stop-color="#CF6247"/>
</linearGradient>
<linearGradient id="paint56_linear_716_1437" x1="209.24" y1="226.734" x2="207.76" y2="232.401" gradientUnits="userSpaceOnUse">
<stop stop-color="#CF6144"/>
<stop offset="1" stop-color="#BC5035" stop-opacity="0"/>
</linearGradient>
<linearGradient id="paint57_linear_716_1437" x1="211.886" y1="230.282" x2="210.505" y2="229.999" gradientUnits="userSpaceOnUse">
<stop stop-color="#CF6144"/>
<stop offset="1" stop-color="#BC5035" stop-opacity="0"/>
</linearGradient>
<linearGradient id="paint58_linear_716_1437" x1="205.896" y1="230.52" x2="207.841" y2="231.035" gradientUnits="userSpaceOnUse">
<stop stop-color="#CF6144"/>
<stop offset="1" stop-color="#BC5035" stop-opacity="0"/>
</linearGradient>
<linearGradient id="paint59_linear_716_1437" x1="208.891" y1="237.614" x2="208.891" y2="235.581" gradientUnits="userSpaceOnUse">
<stop stop-color="#EF74E3"/>
<stop offset="1" stop-color="#EB8D98" stop-opacity="0"/>
</linearGradient>
<radialGradient id="paint60_radial_716_1437" cx="0" cy="0" r="1" gradientUnits="userSpaceOnUse" gradientTransform="translate(214.38 218.714) rotate(-58.259) scale(19.6707)">
<stop stop-color="#E66F2C"/>
<stop offset="1" stop-color="#FFDEA7"/>
</radialGradient>
<radialGradient id="paint61_radial_716_1437" cx="0" cy="0" r="1" gradientUnits="userSpaceOnUse" gradientTransform="translate(208.537 205.88) rotate(5.71438) scale(4.60299 3.14316)">
<stop stop-color="#D08E47"/>
<stop offset="1" stop-color="#D89B5A" stop-opacity="0"/>
</radialGradient>
<radialGradient id="paint62_radial_716_1437" cx="0" cy="0" r="1" gradientUnits="userSpaceOnUse" gradientTransform="translate(213.729 214.359) rotate(-30.9638) scale(7.12647 12.6212)">
<stop stop-color="#D48B5E"/>
<stop offset="1" stop-color="#D48B5E" stop-opacity="0"/>
</radialGradient>
<radialGradient id="paint63_radial_716_1437" cx="0" cy="0" r="1" gradientUnits="userSpaceOnUse" gradientTransform="translate(215.638 211.074) rotate(-20.3655) scale(5.37764 10.7064)">
<stop stop-color="#BB704E"/>
<stop offset="0.592" stop-color="#C38062" stop-opacity="0"/>
</radialGradient>
<linearGradient id="paint64_linear_716_1437" x1="201.888" y1="213.702" x2="201.888" y2="237" gradientUnits="userSpaceOnUse">
<stop stop-color="#FCAC5D"/>
<stop offset="0.469" stop-color="#EE9B63"/>
<stop offset="1" stop-color="#E28666"/>
</linearGradient>
<radialGradient id="paint65_radial_716_1437" cx="0" cy="0" r="1" gradientUnits="userSpaceOnUse" gradientTransform="translate(208.076 229.369) rotate(-51.1926) scale(9.2633 16.0157)">
<stop stop-color="#DA7C40"/>
<stop offset="1" stop-color="#EC9964" stop-opacity="0"/>
</radialGradient>
<linearGradient id="paint66_linear_716_1437" x1="201.888" y1="238.885" x2="201.888" y2="235.136" gradientUnits="userSpaceOnUse">
<stop stop-color="#EF74E3"/>
<stop offset="1" stop-color="#EB8D98" stop-opacity="0"/>
</linearGradient>
<radialGradient id="paint67_radial_716_1437" cx="0" cy="0" r="1" gradientUnits="userSpaceOnUse" gradientTransform="translate(208.076 231.011) rotate(-58.2986) scale(6.10516 5.37093)">
<stop stop-color="#D74DC9"/>
<stop offset="1" stop-color="#EB8D98" stop-opacity="0"/>
</radialGradient>
<radialGradient id="paint68_radial_716_1437" cx="0" cy="0" r="1" gradientUnits="userSpaceOnUse" gradientTransform="translate(191.806 214.207) rotate(56.411) scale(8.42235 8.48139)">
<stop stop-color="#E4AB6F"/>
<stop offset="1" stop-color="#E4AB6F" stop-opacity="0"/>
</radialGradient>
<linearGradient id="paint69_linear_716_1437" x1="204.314" y1="224.962" x2="204.314" y2="228.75" gradientUnits="userSpaceOnUse">
<stop offset="0.226" stop-color="#F3BDB0"/>
<stop offset="1" stop-color="#E5A0A5"/>
</linearGradient>
<linearGradient id="paint70_linear_716_1437" x1="193.081" y1="221.387" x2="193.081" y2="228.567" gradientUnits="userSpaceOnUse">
<stop stop-color="#ECBC95"/>
<stop offset="0.484" stop-color="#F3BDB0"/>
<stop offset="1" stop-color="#E5A0A5"/>
</linearGradient>
<radialGradient id="paint71_radial_716_1437" cx="0" cy="0" r="1" gradientUnits="userSpaceOnUse" gradientTransform="translate(195.549 223.679) rotate(145.797) scale(5.91105 8.63787)">
<stop offset="0.62" stop-color="#CF8C61" stop-opacity="0"/>
<stop offset="1" stop-color="#CF8C61"/>
</radialGradient>
<linearGradient id="paint72_linear_716_1437" x1="191.577" y1="218.867" x2="189.095" y2="222.303" gradientUnits="userSpaceOnUse">
<stop stop-color="#D1867C" stop-opacity="0"/>
<stop offset="0.849" stop-color="#D1867C"/>
</linearGradient>
<radialGradient id="paint73_radial_716_1437" cx="0" cy="0" r="1" gradientUnits="userSpaceOnUse" gradientTransform="translate(187.605 211.838) rotate(34.3397) scale(4.67175 12.7188)">
<stop stop-color="#CF8C61"/>
<stop offset="0.414" stop-color="#CF8C61" stop-opacity="0"/>
</radialGradient>
<linearGradient id="paint74_linear_716_1437" x1="201.888" y1="216.15" x2="201.888" y2="221.16" gradientUnits="userSpaceOnUse">
<stop stop-color="#A36A45"/>
<stop offset="0.266" stop-color="#BD7D53"/>
<stop offset="1" stop-color="#CD8A60"/>
</linearGradient>
<linearGradient id="paint75_linear_716_1437" x1="205.53" y1="213.748" x2="205.53" y2="219.668" gradientUnits="userSpaceOnUse">
<stop stop-color="#A36A45"/>
<stop offset="0.266" stop-color="#BD7D53"/>
<stop offset="1" stop-color="#CD8A60"/>
</linearGradient>
<linearGradient id="paint76_linear_716_1437" x1="209.185" y1="213.367" x2="209.185" y2="217.95" gradientUnits="userSpaceOnUse">
<stop stop-color="#A36A45"/>
<stop offset="0.266" stop-color="#BD7D53"/>
<stop offset="1" stop-color="#CD8A60"/>
</linearGradient>
<radialGradient id="paint77_radial_716_1437" cx="0" cy="0" r="1" gradientUnits="userSpaceOnUse" gradientTransform="translate(187.585 215.542) rotate(140.717) scale(1.43095 0.991077)">
<stop offset="0.022" stop-color="#6B5E60"/>
<stop offset="0.991" stop-color="#433338"/>
</radialGradient>
<linearGradient id="paint78_linear_716_1437" x1="188.442" y1="218.405" x2="188.442" y2="215.96" gradientUnits="userSpaceOnUse">
<stop stop-color="#552D52"/>
<stop offset="1" stop-color="#552D52" stop-opacity="0"/>
</linearGradient>
<linearGradient id="paint79_linear_716_1437" x1="201.793" y1="230.075" x2="208.064" y2="237.812" gradientUnits="userSpaceOnUse">
<stop stop-color="#FFDEAB"/>
<stop offset="1" stop-color="#FFDEAB" stop-opacity="0"/>
</linearGradient>
<linearGradient id="paint80_linear_716_1437" x1="-nan" y1="-nan" x2="-nan" y2="-nan" gradientUnits="userSpaceOnUse">
<stop stop-color="#FFDEAB"/>
<stop offset="1" stop-color="#FFDEAB" stop-opacity="0"/>
</linearGradient>
<linearGradient id="paint81_linear_716_1437" x1="207.219" y1="230.075" x2="213.49" y2="237.811" gradientUnits="userSpaceOnUse">
<stop stop-color="#FFDEAB"/>
<stop offset="1" stop-color="#FFDEAB" stop-opacity="0"/>
</linearGradient>
<linearGradient id="paint82_linear_716_1437" x1="213.919" y1="223.105" x2="216.321" y2="238.969" gradientUnits="userSpaceOnUse">
<stop stop-color="#FFDEAB"/>
<stop offset="1" stop-color="#FFDEAB" stop-opacity="0"/>
</linearGradient>
<linearGradient id="paint83_linear_716_1437" x1="217.776" y1="230.323" x2="215.133" y2="238.564" gradientUnits="userSpaceOnUse">
<stop stop-color="#FFDEAB"/>
<stop offset="1" stop-color="#FFDEAB" stop-opacity="0"/>
</linearGradient>
<linearGradient id="paint84_linear_716_1437" x1="195.72" y1="206.147" x2="195.72" y2="222.8" gradientUnits="userSpaceOnUse">
<stop stop-color="#FFDEAB"/>
<stop offset="1" stop-color="#FFDEAB" stop-opacity="0"/>
</linearGradient>
<linearGradient id="paint85_linear_716_1437" x1="191.931" y1="214.998" x2="191.191" y2="214.998" gradientUnits="userSpaceOnUse">
<stop offset="0.225" stop-color="#6B5E60"/>
<stop offset="1" stop-color="#433338"/>
</linearGradient>
<linearGradient id="paint86_linear_716_1437" x1="192.283" y1="216.662" x2="192.283" y2="214.583" gradientUnits="userSpaceOnUse">
<stop stop-color="#552D52"/>
<stop offset="1" stop-color="#552D52" stop-opacity="0"/>
</linearGradient>
<linearGradient id="paint87_linear_716_1437" x1="216.02" y1="209.088" x2="216.464" y2="219.767" gradientUnits="userSpaceOnUse">
<stop stop-color="#FFDEAB"/>
<stop offset="1" stop-color="#FFDEAB" stop-opacity="0"/>
</linearGradient>
<clipPath id="clip0_716_1437">
<rect width="304.744" height="246" fill="white"/>
</clipPath>
</defs>
</svg>
